<svg xmlns="http://www.w3.org/2000/svg" xmlns:xlink="http://www.w3.org/1999/xlink" width="63.46" height="36.59" viewBox="0 0 63.46 36.59"><defs><clipPath id="clip-path"><circle cx="52.42" cy="25.56" r="11.03" fill="#ce2727"/></clipPath></defs><g id="Layer_2" data-name="Layer 2"><g id="Layer_1-2" data-name="Layer 1"><path d="M15.61,20.23a2.41,2.41,0,0,0,3.21,1.18c1.26-.54,2.43-2.13,1.92-3.33s-2.51-1.54-3.77-1A2.42,2.42,0,0,0,15.61,20.23Z"/><ellipse cx="12.7" cy="21.47" rx="3.73" ry="2.35" transform="translate(-7.42 6.72) rotate(-23.15)"/><path d="M.11,26.85c.77,1.81,5.56,1.5,7.37.72A3.56,3.56,0,1,0,4.68,21C2.87,21.8-.66,25,.11,26.85Z"/><polygon points="18.43 18.16 20.44 14.64 23.65 12.35 23.39 11.97 20.09 14.33 18.04 17.94 18.43 18.16"/><polygon points="14.28 20.1 14.52 16.17 16.07 13.26 16.22 10.52 15.76 10.5 15.62 13.13 14.06 16.04 13.82 20.07 14.28 20.1"/><polygon points="12.61 20.72 11.08 16.05 6.9 12.78 6.61 13.14 10.69 16.33 12.18 20.86 12.61 20.72"/><polygon points="11.33 21.41 11.52 20.99 5.86 18.39 0.91 17.99 0.87 18.44 5.74 18.84 11.33 21.41"/><polygon points="19.07 19.65 23 20.63 26.88 19.89 26.96 20.34 22.99 21.1 18.96 20.09 19.07 19.65"/><polygon points="14.8 21.32 17.8 23.86 20.98 24.74 23.06 26.53 22.76 26.88 20.76 25.16 17.58 24.27 14.5 21.67 14.8 21.32"/><polygon points="13.2 22.09 15.51 26.42 14.99 31.71 14.53 31.66 15.04 26.52 12.8 22.31 13.2 22.09"/><polygon points="11.81 22.54 12.25 22.69 10.22 28.58 7.08 32.44 6.73 32.15 9.81 28.36 11.81 22.54"/><circle cx="42.36" cy="21.53" r="5.27"/><circle cx="52.42" cy="25.56" r="11.03" fill="#ce2727"/><g clip-path="url(#clip-path)"><line x1="42.22" y1="21.36" x2="62.63" y2="29.75" fill="#ce2727"/><rect x="52.22" y="14.52" width="0.41" height="22.07" transform="translate(8.86 64.33) rotate(-67.66)"/></g><circle cx="44.4" cy="26.06" r="2.05"/><circle cx="50.45" cy="29.07" r="1.37"/><circle cx="58.08" cy="31.57" r="1.37"/><circle cx="53.67" cy="33.56" r="1.37"/><circle cx="47.19" cy="32.38" r="1.37"/><circle cx="47" cy="19.74" r="2.05"/><circle cx="53.42" cy="21.85" r="1.37"/><circle cx="60.6" cy="25.43" r="1.37"/><circle cx="58.87" cy="20.92" r="1.37"/><circle cx="53.43" cy="17.21" r="1.37"/><path d="M38,22.58l.14-.77c-.14,0-3.39-.59-5.71,1.11l.46.63C34.93,22.05,38,22.57,38,22.58Z"/><path d="M39.88,18s-2.55-1.77-3-4.28l-.77.12a8.18,8.18,0,0,0,3.28,4.81Z"/><path d="M31.46,12.7c-.75-.46-4.92-5.09-5-9a3.68,3.68,0,0,1,1-3,3.21,3.21,0,0,1,4,0c.75.76.54,1.93,1,2S33,1.77,34,1.12A3.11,3.11,0,0,1,36.46.7a3.22,3.22,0,0,1,2,3s0,2-3,4A10.76,10.76,0,0,0,31.46,12.7Z" fill="#ce2727"/></g></g></svg>