<svg id="Layer_1" data-name="Layer 1" xmlns="http://www.w3.org/2000/svg" viewBox="0 0 1000 1000"><defs><style>.cls-1{fill:#ff8b20;}.cls-2{fill:#34944f;}.cls-3{font-size:191.68px;font-family:tangerino;letter-spacing:0.02em;}</style></defs><path d="M623.93,98.67a9.06,9.06,0,0,1,1.64-.44,8,8,0,0,1,2.68,0,9.76,9.76,0,0,1,2.69.81,10.58,10.58,0,0,1,2.92,2,6.8,6.8,0,0,1,1.67,2.73,7.88,7.88,0,0,1,.25,3.43,13.32,13.32,0,0,1-1.31,4.11l-6.69,13.93L624,123.4l6.71-14a8.94,8.94,0,0,0,.8-2.45,4.93,4.93,0,0,0-.11-2.08,4.5,4.5,0,0,0-1.08-1.84,6.73,6.73,0,0,0-2.05-1.4,7.27,7.27,0,0,0-2.08-.65,7,7,0,0,0-2.09,0,7.41,7.41,0,0,0-1.59.4,9.23,9.23,0,0,0-1.51.75l-7.72,16.07-3.78-1.81L624.59,85l3.78,1.81-6,12.58A8.6,8.6,0,0,1,623.93,98.67Z"/><path d="M666.12,128.08a11.64,11.64,0,0,1,4.15-1.85,10.1,10.1,0,0,1,4.38,0,10.92,10.92,0,0,1,4.31,2,11,11,0,0,1,3.19,3.57A10.5,10.5,0,0,1,683.4,136a12,12,0,0,1-.59,4.49,15.41,15.41,0,0,1-2.32,4.42l-.3.4a15.42,15.42,0,0,1-3.55,3.49,12,12,0,0,1-4.12,1.86,10.36,10.36,0,0,1-4.4,0,11,11,0,0,1-4.3-2,11.13,11.13,0,0,1-3.19-3.56,10.06,10.06,0,0,1-1.25-4.2,11.75,11.75,0,0,1,.57-4.5,15.11,15.11,0,0,1,2.32-4.41l.29-.4A15.51,15.51,0,0,1,666.12,128.08Zm-2.2,9.44a8.83,8.83,0,0,0-.67,3.1,6.5,6.5,0,0,0,.57,2.89,6.39,6.39,0,0,0,2,2.41,6.18,6.18,0,0,0,2.86,1.22,6.69,6.69,0,0,0,2.94-.28,9.08,9.08,0,0,0,2.76-1.55,13.77,13.77,0,0,0,2.41-2.52l.3-.4a13.34,13.34,0,0,0,1.69-3,9.32,9.32,0,0,0,.68-3.1,6.69,6.69,0,0,0-.58-2.9,6.66,6.66,0,0,0-4.89-3.63,6.58,6.58,0,0,0-2.91.31,8.82,8.82,0,0,0-2.78,1.54,13.59,13.59,0,0,0-2.4,2.5l-.29.4A13.42,13.42,0,0,0,663.92,137.52Z"/><path d="M707.81,183.67a6.45,6.45,0,0,0,2.05.72,5.08,5.08,0,0,0,2,0,3.81,3.81,0,0,0,1.76-.88l2.68,2.93a6.5,6.5,0,0,1-2.87,1.47A8.49,8.49,0,0,1,710,188a11.06,11.06,0,0,1-3.48-1.12,10.71,10.71,0,0,1-3-2.31A11.32,11.32,0,0,1,701,180.3a9.79,9.79,0,0,1-.35-4.38,11.1,11.1,0,0,1,1.45-4.18,15.36,15.36,0,0,1,3-3.67l.71-.64a15.17,15.17,0,0,1,3.9-2.62,11.57,11.57,0,0,1,4.32-1.09,10.08,10.08,0,0,1,4.32.76,12.12,12.12,0,0,1,6.22,6.35,10.08,10.08,0,0,1,.75,3.59,8.67,8.67,0,0,1-.7,3.44,8.19,8.19,0,0,1-2.07,2.91l-2.68-2.93a4.93,4.93,0,0,0,1.22-1.78,5.59,5.59,0,0,0,.43-2.1,5.88,5.88,0,0,0-.4-2.19,6.48,6.48,0,0,0-1.28-2,6.37,6.37,0,0,0-2.79-1.89,6.59,6.59,0,0,0-3-.22,8.82,8.82,0,0,0-2.88,1.06,14.4,14.4,0,0,0-2.57,1.86l-.7.65a13.87,13.87,0,0,0-2.11,2.41,8.23,8.23,0,0,0-1.3,2.77,6.12,6.12,0,0,0-.09,2.95,6.56,6.56,0,0,0,1.65,3A7,7,0,0,0,707.81,183.67Z"/><path d="M768.55,277.09a3,3,0,0,0,.68-1.33,8.11,8.11,0,0,0,.2-2.06,20.28,20.28,0,0,0-.31-3,29.38,29.38,0,0,1-.39-4,12,12,0,0,1,.33-3.29,6.33,6.33,0,0,1,1.17-2.51,5.22,5.22,0,0,1,2.26-1.58,5.86,5.86,0,0,1,2.87-.33,7.06,7.06,0,0,1,2.83,1,10.05,10.05,0,0,1,2.51,2.28,12.48,12.48,0,0,1,1.9,3.42,13,13,0,0,1,.9,4,9.37,9.37,0,0,1-.44,3.46,7.44,7.44,0,0,1-1.58,2.7,6.67,6.67,0,0,1-2.57,1.71l-1.49-3.92a3.16,3.16,0,0,0,1.31-.94,4.21,4.21,0,0,0,.86-1.54,5.65,5.65,0,0,0,.27-2,7.17,7.17,0,0,0-.48-2.3,8.51,8.51,0,0,0-1.11-2.09,5.13,5.13,0,0,0-1.33-1.28,3.42,3.42,0,0,0-1.45-.55,3,3,0,0,0-1.39.17A3,3,0,0,0,773,264a2.63,2.63,0,0,0-.62,1.25,6.83,6.83,0,0,0-.13,2,24.75,24.75,0,0,0,.35,2.91,34,34,0,0,1,.41,4.19,12.75,12.75,0,0,1-.32,3.35,6.48,6.48,0,0,1-1.25,2.47,5.5,5.5,0,0,1-2.27,1.55,6,6,0,0,1-3,.36,6.94,6.94,0,0,1-2.87-1.1,10,10,0,0,1-2.5-2.43,14.4,14.4,0,0,1-1.91-3.57,13.58,13.58,0,0,1-1-4.4,10.31,10.31,0,0,1,.5-3.7A7.35,7.35,0,0,1,760,264a6.75,6.75,0,0,1,2.57-1.74l1.49,3.92a4.44,4.44,0,0,0-1.8,1.42,4.85,4.85,0,0,0-.8,1.92,6,6,0,0,0,0,2.12,10.87,10.87,0,0,0,.55,2.09,9.75,9.75,0,0,0,1.41,2.6,4.81,4.81,0,0,0,1.72,1.44,3,3,0,0,0,1.12.27,2.69,2.69,0,0,0,1.12-.18A3.07,3.07,0,0,0,768.55,277.09Z"/><path d="M777.41,330.84a8.67,8.67,0,0,1-3.3-2.54,8.55,8.55,0,0,1-1.72-4,9.56,9.56,0,0,1,0-3.54,6.74,6.74,0,0,1,1.39-3,8.7,8.7,0,0,1,2.9-2.23,16,16,0,0,1,4.53-1.4l14.38-2.47.71,4.13-14.42,2.49a14.6,14.6,0,0,0-3.21.87,5,5,0,0,0-1.89,1.3,3.32,3.32,0,0,0-.84,1.72,6.49,6.49,0,0,0,0,2.14,9.13,9.13,0,0,0,.75,2.43,6.31,6.31,0,0,0,1.23,1.74,5.58,5.58,0,0,0,1.33,1,6.74,6.74,0,0,0,1.59.59l17.35-3,.72,4.16-24.19,4.17-.65-3.76Z"/><path d="M780.31,381.39a6.33,6.33,0,0,0,1,1.94,5,5,0,0,0,1.48,1.38,3.87,3.87,0,0,0,1.88.57l-.08,4a6.55,6.55,0,0,1-3.1-.91,8.73,8.73,0,0,1-2.55-2.27,11,11,0,0,1-1.74-3.21,10.55,10.55,0,0,1-.59-3.76,11.14,11.14,0,0,1,1.1-4.85,9.8,9.8,0,0,1,2.77-3.42,11.39,11.39,0,0,1,3.93-2,15.34,15.34,0,0,1,4.68-.6l.95,0a15.45,15.45,0,0,1,4.63.79,11.58,11.58,0,0,1,3.88,2.2,10.07,10.07,0,0,1,2.61,3.52,12.15,12.15,0,0,1,.12,8.89,10.14,10.14,0,0,1-1.93,3.12,8.8,8.8,0,0,1-2.88,2,8.32,8.32,0,0,1-3.51.67l.08-4a5.06,5.06,0,0,0,2.11-.45,5.69,5.69,0,0,0,3-3.09,6.58,6.58,0,0,0,.48-2.36,6.3,6.3,0,0,0-.72-3.3,6.39,6.39,0,0,0-2-2.18,8.9,8.9,0,0,0-2.81-1.23,14.63,14.63,0,0,0-3.15-.41l-.95,0a14.19,14.19,0,0,0-3.19.28,8.32,8.32,0,0,0-2.85,1.11,6.14,6.14,0,0,0-2.1,2.08,6.42,6.42,0,0,0-.85,3.28A6.67,6.67,0,0,0,780.31,381.39Z"/><path d="M773,438a8.42,8.42,0,0,1-2.23-7.95,9.71,9.71,0,0,1,1.32-3.29,6.64,6.64,0,0,1,2.39-2.23,8.65,8.65,0,0,1,3.52-1,15.92,15.92,0,0,1,4.73.4L797,427l-.87,4.1-14.31-3.05a14.07,14.07,0,0,0-3.31-.38,5,5,0,0,0-2.24.5,3.31,3.31,0,0,0-1.41,1.28,6.28,6.28,0,0,0-.75,2,8.73,8.73,0,0,0-.21,2.53,6.35,6.35,0,0,0,.5,2.08,5,5,0,0,0,.87,1.4,6.78,6.78,0,0,0,1.25,1.14l17.22,3.68-.88,4.12-24-5.12.8-3.73Z"/><path d="M759.84,490.91a3.1,3.1,0,0,0,1.41-.49,7.9,7.9,0,0,0,1.56-1.36,20,20,0,0,0,1.83-2.36,29.17,29.17,0,0,1,2.45-3.13,12.16,12.16,0,0,1,2.51-2.16,6.22,6.22,0,0,1,2.58-1,5.07,5.07,0,0,1,2.72.41,5.92,5.92,0,0,1,2.31,1.73,7.16,7.16,0,0,1,1.33,2.71,10.1,10.1,0,0,1,.25,3.39,12.46,12.46,0,0,1-1,3.78,13.37,13.37,0,0,1-2.13,3.54,9.32,9.32,0,0,1-2.7,2.2,7.35,7.35,0,0,1-3,.86,6.55,6.55,0,0,1-3-.53l1.63-3.87a3.14,3.14,0,0,0,1.59.23,4.3,4.3,0,0,0,1.69-.52,5.76,5.76,0,0,0,1.56-1.25,7,7,0,0,0,1.24-2,8.63,8.63,0,0,0,.64-2.27,5.28,5.28,0,0,0-.08-1.85,3.53,3.53,0,0,0-.67-1.39,3.12,3.12,0,0,0-2.42-1.1,2.63,2.63,0,0,0-1.31.49,6.73,6.73,0,0,0-1.45,1.32,24.73,24.73,0,0,0-1.75,2.35A32.71,32.71,0,0,1,765,492a11.91,11.91,0,0,1-2.54,2.2,6.15,6.15,0,0,1-2.61.93,5.42,5.42,0,0,1-2.72-.44,6.14,6.14,0,0,1-2.45-1.84,7,7,0,0,1-1.31-2.78,10,10,0,0,1-.13-3.48,14.29,14.29,0,0,1,1.08-3.9,14,14,0,0,1,2.34-3.84,10.63,10.63,0,0,1,2.93-2.34,7.46,7.46,0,0,1,3.14-.92,6.73,6.73,0,0,1,3.06.52l-1.63,3.86a4.36,4.36,0,0,0-2.28-.21,4.72,4.72,0,0,0-1.9.84,6.12,6.12,0,0,0-1.48,1.52,11,11,0,0,0-1,1.89,9.83,9.83,0,0,0-.77,2.85,4.75,4.75,0,0,0,.26,2.23,2.93,2.93,0,0,0,.62,1,2.79,2.79,0,0,0,.93.65A3,3,0,0,0,759.84,490.91Z"/><path d="M721.67,579.32l-3,3.06-18.09-8-1.35-.79.79,1.36,8.3,17.91-3,3.05-10.38-24.39,2.25-2.27Z"/><path d="M651,608.61c.35.34.68.71,1,1.1a13,13,0,0,1,.49-1.79,10.84,10.84,0,0,1,.86-1.79,11.29,11.29,0,0,1,1.28-1.7,9.42,9.42,0,0,1,1.74-1.48,10.39,10.39,0,0,1,3.23-1.52,8,8,0,0,1,3.07-.23,6.48,6.48,0,0,1,2.7.92,6.79,6.79,0,0,1,2.11,2,7.35,7.35,0,0,1,1.33,3.38,7,7,0,0,1-.45,3.38,10.86,10.86,0,0,1-2.09,3.24,20.22,20.22,0,0,1-3.55,3L659,619.76l1.08,1.59a4.71,4.71,0,0,0,1.47,1.42,4.27,4.27,0,0,0,1.81.6,5.28,5.28,0,0,0,2-.24,8.23,8.23,0,0,0,2.19-1.08,7.29,7.29,0,0,0,1.67-1.52,5.65,5.65,0,0,0,.9-1.63,3.79,3.79,0,0,0,.18-1.62,3.3,3.3,0,0,0-.53-1.44l3.48-2.38a6,6,0,0,1,.92,2.57,7.56,7.56,0,0,1-.29,3,9.9,9.9,0,0,1-1.59,3.09,12.14,12.14,0,0,1-3,2.83,14.54,14.54,0,0,1-3.49,1.77,9.07,9.07,0,0,1-3.43.48,7.58,7.58,0,0,1-3.15-1,8.23,8.23,0,0,1-2.65-2.56l-6.43-9.43a16.21,16.21,0,0,0-1.65-2,11.09,11.09,0,0,0-1.88-1.62l-.2-.3,3.62-2.47A4.72,4.72,0,0,1,651,608.61Zm5.21-.75a9.14,9.14,0,0,0-1.13,1.8,7.21,7.21,0,0,0-.57,1.82,5.89,5.89,0,0,0,0,1.72l2.8,4.1,3.22-2.2a16.39,16.39,0,0,0,2.93-2.45,6.22,6.22,0,0,0,1.48-2.39,3.59,3.59,0,0,0,.13-1.65,4,4,0,0,0-.67-1.61,4.46,4.46,0,0,0-1.2-1.21,3.44,3.44,0,0,0-1.5-.57,4.2,4.2,0,0,0-1.77.14,6.41,6.41,0,0,0-2,.95A8.07,8.07,0,0,0,656.21,607.86Z"/><path d="M619.46,663.36,607,634.74l-7.34,3.2-1.45-3.33,18.84-8.2,1.45,3.32-7.65,3.34,11,25.27,7.66-3.34,1.45,3.35Z"/><path d="M561.78,646.21a10.87,10.87,0,0,1,4.16,1.6,11.35,11.35,0,0,1,3.17,3.16,12.83,12.83,0,0,1,1.87,4.44l.21.93a14.05,14.05,0,0,1,.23,5.4,12.28,12.28,0,0,1-1.62,4.44,11.07,11.07,0,0,1-2.94,3.19A10.31,10.31,0,0,1,563,671.1a10.88,10.88,0,0,1-4.73.12,9.28,9.28,0,0,1-3.77-1.75,11,11,0,0,1-2.75-3.32,16.77,16.77,0,0,1-1.66-4.51l-.41-1.83L566.81,656l0-.16a11.16,11.16,0,0,0-1.39-2.92,7.84,7.84,0,0,0-2-2,7.09,7.09,0,0,0-2.73-1.18,7.55,7.55,0,0,0-3.17,0,8.45,8.45,0,0,0-3.7,1.76,8.57,8.57,0,0,0-2.32,3l-2.93-1.39a10.91,10.91,0,0,1,2.86-4,11.54,11.54,0,0,1,5.56-2.72A12.38,12.38,0,0,1,561.78,646.21Zm2.74,20.55a6.34,6.34,0,0,0,1.7-1.76,7.94,7.94,0,0,0,1-2.49,10.52,10.52,0,0,0,.2-3.13l-12.89,2.88.05.2a7.54,7.54,0,0,0,.95,2.28,6.89,6.89,0,0,0,1.66,1.94,6,6,0,0,0,2.23,1.09,6.21,6.21,0,0,0,2.84,0A6.32,6.32,0,0,0,564.52,666.76Z"/><path d="M505.82,677.73l-9.35.27-.09-3.25,9.34-.26-.37-13.33a6.62,6.62,0,0,0-.43-2.35,3.61,3.61,0,0,0-1-1.45,3.71,3.71,0,0,0-1.48-.75,6.82,6.82,0,0,0-1.77-.18c-.45,0-.92.06-1.4.12s-1,.15-1.42.24-.88.17-1.28.27l-1,.24-.67-2.95a5.83,5.83,0,0,1,1.25-.59,13.54,13.54,0,0,1,1.62-.45c.59-.13,1.21-.24,1.87-.32s1.31-.13,2-.15a9.81,9.81,0,0,1,3.06.38,6.34,6.34,0,0,1,2.5,1.42,6.87,6.87,0,0,1,1.72,2.55,11,11,0,0,1,.71,3.85l.37,13.33,6.44-.18.09,3.24-6.44.19.17,5.94-4.22.12Z"/><path d="M394.65,635.27a11.7,11.7,0,0,1-.31,1.47,11.69,11.69,0,0,1,1.75-.64,9.47,9.47,0,0,1,2-.35,10.87,10.87,0,0,1,2.13,0,9.87,9.87,0,0,1,2.22.55,10.25,10.25,0,0,1,3.11,1.75,7.92,7.92,0,0,1,2,2.36,6.56,6.56,0,0,1,.82,2.73,6.94,6.94,0,0,1-.42,2.9,7.35,7.35,0,0,1-2,3,7,7,0,0,1-3,1.6,10.55,10.55,0,0,1-3.85.18,20.2,20.2,0,0,1-4.53-1.12l-4.3-1.58-.66,1.81a4.71,4.71,0,0,0-.31,2,4.4,4.4,0,0,0,.57,1.82,5.48,5.48,0,0,0,1.38,1.53,7.88,7.88,0,0,0,2.16,1.14,7.22,7.22,0,0,0,2.2.48,5.73,5.73,0,0,0,1.86-.22,3.58,3.58,0,0,0,1.41-.8,3.18,3.18,0,0,0,.87-1.26l4,1.45a5.88,5.88,0,0,1-1.56,2.23,7.37,7.37,0,0,1-2.62,1.53,10,10,0,0,1-3.44.5,12,12,0,0,1-4.06-.81,14.22,14.22,0,0,1-3.47-1.81,9.14,9.14,0,0,1-2.39-2.51,7.52,7.52,0,0,1-1-3.13,8.27,8.27,0,0,1,.54-3.64l3.93-10.72a16.75,16.75,0,0,0,.68-2.52,11.79,11.79,0,0,0,.23-2.46l.12-.34,4.11,1.5A4.56,4.56,0,0,1,394.65,635.27Zm3.64,3.81a8.24,8.24,0,0,0-2.12.12,7,7,0,0,0-1.81.6,5.65,5.65,0,0,0-1.42,1l-1.71,4.66,3.67,1.34a17.1,17.1,0,0,0,3.69,1,6.36,6.36,0,0,0,2.82-.19,3.63,3.63,0,0,0,1.41-.86,3.87,3.87,0,0,0,.91-1.48,4.38,4.38,0,0,0,.29-1.68,3.35,3.35,0,0,0-.41-1.55,4.12,4.12,0,0,0-1.14-1.36,6.77,6.77,0,0,0-1.91-1A7.84,7.84,0,0,0,398.29,639.08Z"/><path d="M352.08,633.4a11.77,11.77,0,0,1-3.74,2.37,9.06,9.06,0,0,1-4,.63,8.75,8.75,0,0,1-4-1.3,9.23,9.23,0,0,1-2.92-2.61,8.11,8.11,0,0,1-1.34-3.3L329.6,640.1l-3.6-2.17L344,608.07l3.3,2-1.17,2.31a8.12,8.12,0,0,1,3.67-.44,9.59,9.59,0,0,1,3.8,1.39,8.49,8.49,0,0,1,3,2.89,9.24,9.24,0,0,1,1.27,3.84,12.72,12.72,0,0,1-.34,4.41,16.67,16.67,0,0,1-1.93,4.57l-.24.41A17.6,17.6,0,0,1,352.08,633.4Zm1.27-9.66a8.67,8.67,0,0,0,.42-3,5.68,5.68,0,0,0-2.95-4.87,6,6,0,0,0-3.48-1,6.67,6.67,0,0,0-3.21,1.07l-5.86,9.76a7.08,7.08,0,0,0,.62,3.24,5.87,5.87,0,0,0,2.46,2.6,6,6,0,0,0,3,.94,5.9,5.9,0,0,0,2.76-.62,8.8,8.8,0,0,0,2.51-1.84,14.73,14.73,0,0,0,2.09-2.72l.24-.41A15,15,0,0,0,353.35,623.74Z"/><path d="M275.67,545.69a10.7,10.7,0,0,1,.26,4.45,11.29,11.29,0,0,1-1.55,4.19,13,13,0,0,1-3.27,3.55l-.76.57a14.11,14.11,0,0,1-4.82,2.45,12.29,12.29,0,0,1-4.7.37,11.06,11.06,0,0,1-4.13-1.36,10.21,10.21,0,0,1-3.17-2.77,10.93,10.93,0,0,1-2.07-4.25,9.27,9.27,0,0,1,0-4.16,11,11,0,0,1,1.88-3.88,17.12,17.12,0,0,1,3.41-3.39l1.5-1.13,10.57,14,.13-.09a11.12,11.12,0,0,0,2.09-2.48,7.71,7.71,0,0,0,1-2.67,7.09,7.09,0,0,0-.06-3,7.37,7.37,0,0,0-1.36-2.86,8.46,8.46,0,0,0-3.13-2.64,8.7,8.7,0,0,0-3.67-.87l.05-3.25a11,11,0,0,1,4.84.94,11.67,11.67,0,0,1,4.78,3.93A12.48,12.48,0,0,1,275.67,545.69Zm-17.57,11a6.32,6.32,0,0,0,2.31.82,8,8,0,0,0,2.69-.11,10.72,10.72,0,0,0,2.92-1.12l-8-10.53-.16.12a7.79,7.79,0,0,0-1.69,1.81,7,7,0,0,0-1.07,2.32,5.9,5.9,0,0,0-.07,2.48,6.08,6.08,0,0,0,1.21,2.57A6.16,6.16,0,0,0,258.1,556.7Z"/><path d="M220.74,501.9l-2.18-4.42,14.93,2.82,7-13.92,2.15,4.35L237.23,501l11.38,1.94,2.17,4.39-15.28-2.92-6.83,13.57-2.15-4.35,5.28-9.85Z"/><path d="M205.74,463.43l-1-3.69,2.52-.91a8.43,8.43,0,0,1-1.39-.75,7.46,7.46,0,0,1-1.18-1,8.22,8.22,0,0,1-1.36-1.83,10.69,10.69,0,0,1-.94-2.34,9.21,9.21,0,0,1-.21-4.27,8.67,8.67,0,0,1,1.69-3.62,11.94,11.94,0,0,1,3.32-2.84,18.69,18.69,0,0,1,4.7-1.95l.46-.13a18.69,18.69,0,0,1,4.91-.69,12.37,12.37,0,0,1,4.31.75,8.82,8.82,0,0,1,3.34,2.22,8.69,8.69,0,0,1,2,3.72,11.22,11.22,0,0,1,.41,2.6,8,8,0,0,1-.67,3.61,8.91,8.91,0,0,1-.63,1.18l11.38-3.12,1.11,4Zm4.07-17.86a9.56,9.56,0,0,0-2.45,1.93,6.33,6.33,0,0,0-1.32,2.56,6.07,6.07,0,0,0,.11,3.12,6.72,6.72,0,0,0,.69,1.68,6,6,0,0,0,2.4,2.22,7.89,7.89,0,0,0,1.63.59l11.39-3.13a8.56,8.56,0,0,0,1-1.19,5.18,5.18,0,0,0,.66-1.36,6.3,6.3,0,0,0,.3-1.76,7.15,7.15,0,0,0-.27-2,5.87,5.87,0,0,0-1.51-2.71A6.08,6.08,0,0,0,220,444a9.35,9.35,0,0,0-3.1-.41,14.56,14.56,0,0,0-3.4.53l-.46.13A13.9,13.9,0,0,0,209.81,445.57Z"/><path d="M192.21,388.3a7.42,7.42,0,0,1,.28-1.93l4.14.25a23.12,23.12,0,0,0-.22,2.35,20.08,20.08,0,0,0,.05,2.31,9.84,9.84,0,0,0,.59,2.75,6.52,6.52,0,0,0,1.26,2.09,6.83,6.83,0,0,0,1.66,1.34,9.15,9.15,0,0,0,2.13.87l15.7-1.21.32,4.21-24.47,1.88-.31-4,3.27-.43.61-.07a11.39,11.39,0,0,1-3.46-3.34,9.73,9.73,0,0,1-1.53-4.67A17.67,17.67,0,0,1,192.21,388.3Z"/><path d="M186.65,339.35a2.13,2.13,0,0,1-1.13-1.43,3.39,3.39,0,0,1-.05-1.07,3.3,3.3,0,0,1,.29-1,2.24,2.24,0,0,1,.55-.69,2.11,2.11,0,0,1,.85-.45,3.08,3.08,0,0,1,1.06-.06,2.45,2.45,0,0,1,1.62.82,2.5,2.5,0,0,1,.46,1.95,2.46,2.46,0,0,1-.89,1.81,2.42,2.42,0,0,1-1.76.42A3,3,0,0,1,186.65,339.35Zm7.93-3.7L215.37,338l.9-7.95,3.61.41-2.33,20.42-3.6-.41.94-8.3-17.15-1.95-1,8.29-3.63-.41Z"/><path d="M206,290.5a5.59,5.59,0,0,1-1.34-2.48,5.88,5.88,0,0,1,.16-3,6.86,6.86,0,0,1,.73-1.61,4.63,4.63,0,0,1,1-1.13,3.89,3.89,0,0,1,1-.51,4.3,4.3,0,0,1,1.15-.27,5.91,5.91,0,0,1-1.19-2.13,5.92,5.92,0,0,1-.16-1.54,7.21,7.21,0,0,1,.27-1.71,6.5,6.5,0,0,1,1-2.07,4.45,4.45,0,0,1,1.56-1.32,5.35,5.35,0,0,1,2.38-.49,10.32,10.32,0,0,1,3,.52l17.5,5.47L232,282l-17.54-5.48a4.67,4.67,0,0,0-1.36-.23,2.45,2.45,0,0,0-1.08.21,2.07,2.07,0,0,0-.79.69,3.89,3.89,0,0,0-.54,1.12,3.72,3.72,0,0,0-.19,1.3,2.56,2.56,0,0,0,.25,1,2.78,2.78,0,0,0,.62.79,3.52,3.52,0,0,0,.9.56l.21.07.23.07,17.53,5.48L229,291.43l-17.56-5.49a5.07,5.07,0,0,0-1.35-.24,2.27,2.27,0,0,0-1.09.22,2,2,0,0,0-.76.65,3.81,3.81,0,0,0-.52,1.09,4.26,4.26,0,0,0-.22,1.29,2.69,2.69,0,0,0,.18,1.05,2.88,2.88,0,0,0,.39.65,3.45,3.45,0,0,0,.54.54L227.28,297l-1.19,3.81-23.43-7.32,1.12-3.6Z"/><path d="M248,243.7a10.87,10.87,0,0,1-3.93,2.1,11.45,11.45,0,0,1-4.46.34,12.69,12.69,0,0,1-4.58-1.49l-.84-.45a13.9,13.9,0,0,1-4.24-3.35,12.22,12.22,0,0,1-2.31-4.12,11.19,11.19,0,0,1-.49-4.32,10.35,10.35,0,0,1,1.19-4,11.06,11.06,0,0,1,3-3.65,9.08,9.08,0,0,1,3.79-1.71,11,11,0,0,1,4.31.08,17,17,0,0,1,4.5,1.69l1.66.89-8.29,15.45.14.07a10.78,10.78,0,0,0,3.12.86,7.52,7.52,0,0,0,2.84-.21,7,7,0,0,0,2.67-1.29,7.39,7.39,0,0,0,2-2.44,8.56,8.56,0,0,0,1.09-4,8.67,8.67,0,0,0-.74-3.69l3-1.32a10.91,10.91,0,0,1,1.17,4.79,11.63,11.63,0,0,1-1.57,6A12.52,12.52,0,0,1,248,243.7Zm-17.35-11.36a6.33,6.33,0,0,0,.23,2.44,7.79,7.79,0,0,0,1.22,2.4,10.8,10.8,0,0,0,2.23,2.19l6.25-11.64-.18-.09a7.8,7.8,0,0,0-2.36-.78,7.28,7.28,0,0,0-2.55,0,6,6,0,0,0-2.28,1,6.2,6.2,0,0,0-1.83,2.17A6.44,6.44,0,0,0,230.65,232.34Z"/><path d="M254.39,188.44l2.38-2.92,3,2.06a10.44,10.44,0,0,1-.35-1.82,8.89,8.89,0,0,1,.62-4.32,9.87,9.87,0,0,1,1.39-2.37,10.93,10.93,0,0,1,2.63-2.37,6.69,6.69,0,0,1,3-1,7.68,7.68,0,0,1,3.36.53,13.41,13.41,0,0,1,3.66,2.2l12.09,9.85-2.66,3.25-12-9.79a9.27,9.27,0,0,0-2.38-1.46,4.53,4.53,0,0,0-2.09-.34,4.34,4.34,0,0,0-1.91.72,8.25,8.25,0,0,0-1.74,1.64,7.15,7.15,0,0,0-1.11,1.88,7.37,7.37,0,0,0-.46,2,7.85,7.85,0,0,0,.59,3.41l13.65,11.11-2.65,3.26Z"/><path d="M298.15,151.36a12.06,12.06,0,0,1-1-4.31,9.07,9.07,0,0,1,.71-4,8.74,8.74,0,0,1,2.52-3.31,9.28,9.28,0,0,1,3.43-1.9,7.9,7.9,0,0,1,3.56-.18l-8.16-9.77,3.22-2.69L324.75,152l-3,2.47-1.8-1.87a8.11,8.11,0,0,1-.79,3.62,9.69,9.69,0,0,1-2.56,3.13,8.41,8.41,0,0,1-3.7,1.85,9,9,0,0,1-4-.05,12.75,12.75,0,0,1-4.06-1.77,16.82,16.82,0,0,1-3.69-3.32l-.3-.37A17.5,17.5,0,0,1,298.15,151.36Zm8.7,4.35a8.83,8.83,0,0,0,2.74,1.41,5.68,5.68,0,0,0,5.57-1.19,6,6,0,0,0,2.07-3,6.77,6.77,0,0,0,0-3.38l-7.3-8.74a7.06,7.06,0,0,0-3.27-.48,6.1,6.1,0,0,0-5.45,6.78,9.06,9.06,0,0,0,.92,3,14.15,14.15,0,0,0,1.89,2.86l.31.37A14,14,0,0,0,306.85,155.71Z"/><path d="M364.59,122.39a8.82,8.82,0,0,1-1.31,4,8.6,8.6,0,0,1-3.22,2.94,9.4,9.4,0,0,1-3.35,1.17,6.63,6.63,0,0,1-3.24-.33,8.66,8.66,0,0,1-3.07-2,15.89,15.89,0,0,1-2.81-3.82l-7.09-12.75,3.67-2,7.11,12.79a13.45,13.45,0,0,0,1.89,2.74,5.15,5.15,0,0,0,1.84,1.37,3.37,3.37,0,0,0,1.9.21,6.38,6.38,0,0,0,2-.75,9,9,0,0,0,2-1.51,6.42,6.42,0,0,0,1.24-1.74,5.36,5.36,0,0,0,.48-1.58,6.36,6.36,0,0,0,0-1.69L354.17,104l3.69-2,11.92,21.46-3.33,1.85Z"/><path d="M395.32,88.25a5.41,5.41,0,0,1,1.23-2.53,5.69,5.69,0,0,1,2.56-1.63,6.44,6.44,0,0,1,1.74-.34,4.22,4.22,0,0,1,1.49.16,3.8,3.8,0,0,1,1,.49,4.61,4.61,0,0,1,.89.78,6.12,6.12,0,0,1,.4-1.16,5.68,5.68,0,0,1,.64-1,5.81,5.81,0,0,1,1.16-1,7,7,0,0,1,1.55-.77,6.82,6.82,0,0,1,2.29-.36,4.68,4.68,0,0,1,2,.51A5.3,5.3,0,0,1,414,83a10.36,10.36,0,0,1,1.35,2.79l5.72,17.41-3.79,1.25L411.56,87a4.93,4.93,0,0,0-.59-1.24,2.72,2.72,0,0,0-.8-.76,2.48,2.48,0,0,0-1-.24,3.91,3.91,0,0,0-1.23.22,3.6,3.6,0,0,0-1.16.59,2.84,2.84,0,0,0-.69.8,2.58,2.58,0,0,0-.28,1,3.22,3.22,0,0,0,.06,1.06c0,.08.05.14.07.21s0,.14.07.22l5.73,17.46-3.79,1.25L402.18,90a4.93,4.93,0,0,0-.59-1.24,2.33,2.33,0,0,0-.81-.76,2,2,0,0,0-1-.24,3.36,3.36,0,0,0-1.19.21,4.05,4.05,0,0,0-1.18.57,2.51,2.51,0,0,0-.74.75,2.58,2.58,0,0,0-.31.7,3.26,3.26,0,0,0-.12.76l6.09,18.55-3.79,1.25-7.66-23.32,3.58-1.18Z"/><path d="M511.89,73.63a3.93,3.93,0,0,1,1-1.35,4.06,4.06,0,0,1,1.5-.84,5,5,0,0,1,1.93-.21,5.15,5.15,0,0,1,1.9.46,4.49,4.49,0,0,1,1.41,1,4,4,0,0,1,.82,1.48,5.15,5.15,0,0,1,.2,1.82l-.09,1.31a5,5,0,0,1-.43,1.77,4.1,4.1,0,0,1-2.52,2.19,5.24,5.24,0,0,1-1.93.2,5.15,5.15,0,0,1-1.9-.45,4.27,4.27,0,0,1-2.22-2.5,4.49,4.49,0,0,1-.21-1.81l.08-1.31A4.91,4.91,0,0,1,511.89,73.63Z"/><circle class="cls-1" cx="498.14" cy="373.15" r="250.56"/><path class="cls-2" d="M639.53,339.15H586.08A100.47,100.47,0,0,1,485.61,238.67V185.23h53.44A100.48,100.48,0,0,1,639.53,285.71Z"/><text class="cls-3" transform="translate(153.66 906.65)">tangerino</text></svg>