<svg id="Layer_1" data-name="Layer 1" xmlns="http://www.w3.org/2000/svg" xmlns:xlink="http://www.w3.org/1999/xlink" width="1000" height="1000" viewBox="0 0 1000 1000">
  <defs>
    <pattern id="New_Pattern_3" data-name="New Pattern 3" width="100" height="100" patternUnits="userSpaceOnUse" viewBox="0 0 100 100">
      <rect width="100" height="100" fill="none"/>
      <circle cx="50" cy="50" r="2.5" fill="#c7b299"/>
    </pattern>
    <pattern id="New_Pattern_3-3" data-name="New Pattern 3" width="100" height="100" patternUnits="userSpaceOnUse" viewBox="0 0 100 100">
      <rect width="100" height="100" fill="none"/>
      <circle cx="50" cy="50" r="2.5" fill="#c7b299"/>
    </pattern>
    <clipPath id="clip-path">
      <rect x="1300" width="1920" height="1080" stroke="#000" stroke-miterlimit="10" stroke-width="2" fill="url(#New_Pattern_3)"/>
    </clipPath>
  </defs>
  <g>
    <rect x="1300" width="1920" height="1080" fill="url(#New_Pattern_3-3)"/>
    <g clip-path="url(#clip-path)">
      <rect x="731.14" y="-201" width="2509.59" height="1409.03" stroke="#000" stroke-miterlimit="10" stroke-width="2" fill="url(#New_Pattern_3-3)"/>
    </g>
    <rect x="1300" width="1920" height="1080" fill="none" stroke="#000" stroke-miterlimit="10" stroke-width="2"/>
  </g>
  <g id="texty">
    <path d="M701.71,64a14,14,0,0,1,2.61-.69,12.89,12.89,0,0,1,4.25-.08,15.46,15.46,0,0,1,4.28,1.3,16.62,16.62,0,0,1,4.64,3.21,10.62,10.62,0,0,1,2.65,4.33,12.67,12.67,0,0,1,.4,5.45,21.56,21.56,0,0,1-2.08,6.54l-10.63,22.13-6-2.89,10.66-22.19a13.65,13.65,0,0,0,1.27-3.89,7.65,7.65,0,0,0-.17-3.3A6.93,6.93,0,0,0,711.86,71a10.76,10.76,0,0,0-3.25-2.22,11.64,11.64,0,0,0-3.31-1,11.19,11.19,0,0,0-3.32,0,11.89,11.89,0,0,0-2.53.64,13.65,13.65,0,0,0-2.39,1.19L684.79,95.12l-6-2.89,24-49.9,6,2.88-9.6,20A14.32,14.32,0,0,1,701.71,64Z"/>
    <path d="M768.76,110.74a18.44,18.44,0,0,1,6.58-2.95,16.32,16.32,0,0,1,7-.06,17.22,17.22,0,0,1,6.85,3.17,17.41,17.41,0,0,1,5.06,5.67,16.54,16.54,0,0,1,2,6.71,19,19,0,0,1-.94,7.14,24.58,24.58,0,0,1-3.69,7l-.48.64a24.08,24.08,0,0,1-5.64,5.55,18.92,18.92,0,0,1-6.55,3,16.42,16.42,0,0,1-7,0,17.4,17.4,0,0,1-6.83-3.19,17.76,17.76,0,0,1-5.08-5.65,16.08,16.08,0,0,1-2-6.68A18.64,18.64,0,0,1,759,124a24,24,0,0,1,3.67-7l.48-.64A24.21,24.21,0,0,1,768.76,110.74Zm-3.51,15a14.16,14.16,0,0,0-1.06,4.94,10.15,10.15,0,0,0,.91,4.58,9.92,9.92,0,0,0,3.22,3.83,9.75,9.75,0,0,0,4.55,1.94,10.42,10.42,0,0,0,4.66-.44,14.42,14.42,0,0,0,4.39-2.47,21.77,21.77,0,0,0,3.83-4l.47-.64a21,21,0,0,0,2.69-4.8,14.76,14.76,0,0,0,1.08-4.93,10.64,10.64,0,0,0-.91-4.61,9.77,9.77,0,0,0-3.2-3.83,9.6,9.6,0,0,0-4.57-1.94,10.43,10.43,0,0,0-4.63.49,14.06,14.06,0,0,0-4.42,2.45,21.16,21.16,0,0,0-3.81,4l-.47.64A21.53,21.53,0,0,0,765.25,125.73Z"/>
    <path d="M835,199.1a10,10,0,0,0,3.25,1.15,8.11,8.11,0,0,0,3.22,0,6.22,6.22,0,0,0,2.79-1.41l4.26,4.66a10.45,10.45,0,0,1-4.57,2.35,14.08,14.08,0,0,1-5.42.18,17.32,17.32,0,0,1-5.52-1.79,16.59,16.59,0,0,1-4.8-3.67,17.85,17.85,0,0,1-4.06-6.79,15.82,15.82,0,0,1-.55-7,18,18,0,0,1,2.3-6.64,24.48,24.48,0,0,1,4.71-5.82l1.12-1a24,24,0,0,1,6.21-4.16,18.44,18.44,0,0,1,6.87-1.74,16.22,16.22,0,0,1,6.86,1.2,17.8,17.8,0,0,1,6.4,4.66,18,18,0,0,1,3.48,5.43,16.23,16.23,0,0,1,1.19,5.72,13.88,13.88,0,0,1-1.11,5.46,13.23,13.23,0,0,1-3.29,4.63l-4.26-4.66a8.14,8.14,0,0,0,1.94-2.82,9.1,9.1,0,0,0,.68-3.34,9.2,9.2,0,0,0-.64-3.49,10.38,10.38,0,0,0-2-3.24,9.72,9.72,0,0,0-9.11-3.34,13.78,13.78,0,0,0-4.58,1.67,22.12,22.12,0,0,0-4.07,3l-1.12,1a22.73,22.73,0,0,0-3.36,3.83,13.21,13.21,0,0,0-2.06,4.39,9.78,9.78,0,0,0-.14,4.69,10.18,10.18,0,0,0,2.62,4.71A10.73,10.73,0,0,0,835,199.1Z"/>
    <path d="M931.54,347.59a4.83,4.83,0,0,0,1.07-2.11,12.41,12.41,0,0,0,.32-3.28,31.93,31.93,0,0,0-.49-4.71,44.57,44.57,0,0,1-.61-6.3,19.28,19.28,0,0,1,.52-5.23,9.85,9.85,0,0,1,1.87-4,8.17,8.17,0,0,1,3.57-2.51,9.25,9.25,0,0,1,4.56-.53,11.39,11.39,0,0,1,4.5,1.65,15.74,15.74,0,0,1,4,3.63,20,20,0,0,1,3,5.43,21.08,21.08,0,0,1,1.42,6.4,15.2,15.2,0,0,1-.69,5.51,11.78,11.78,0,0,1-2.52,4.28,10.65,10.65,0,0,1-4.08,2.72l-2.36-6.23a5.25,5.25,0,0,0,2.08-1.49,7.19,7.19,0,0,0,1.37-2.44,9.25,9.25,0,0,0,.42-3.15,11,11,0,0,0-.77-3.66,13.23,13.23,0,0,0-1.76-3.32,8,8,0,0,0-2.11-2,5.3,5.3,0,0,0-2.3-.87,4.84,4.84,0,0,0-4,1.39,4.14,4.14,0,0,0-1,2,10.84,10.84,0,0,0-.21,3.11,39.81,39.81,0,0,0,.55,4.62,51.81,51.81,0,0,1,.65,6.66,19,19,0,0,1-.51,5.32,10.26,10.26,0,0,1-2,3.93,8.71,8.71,0,0,1-3.61,2.47,9.63,9.63,0,0,1-4.83.57,11.09,11.09,0,0,1-4.56-1.76,15.87,15.87,0,0,1-4-3.86,22.77,22.77,0,0,1-3-5.67,21.64,21.64,0,0,1-1.51-7,16.65,16.65,0,0,1,.79-5.89,11.9,11.9,0,0,1,2.61-4.51,10.82,10.82,0,0,1,4.09-2.76l2.36,6.24a6.82,6.82,0,0,0-2.85,2.25,7.62,7.62,0,0,0-1.28,3,9.7,9.7,0,0,0,0,3.36,16.28,16.28,0,0,0,.87,3.33,15.4,15.4,0,0,0,2.24,4.13,7.46,7.46,0,0,0,2.73,2.28,5.06,5.06,0,0,0,1.79.44,4.25,4.25,0,0,0,1.78-.29A4.92,4.92,0,0,0,931.54,347.59Z"/>
    <path d="M945.6,433a13.36,13.36,0,0,1-8-10.4,15.7,15.7,0,0,1,0-5.64,10.64,10.64,0,0,1,2.21-4.69,13.85,13.85,0,0,1,4.6-3.55,25.68,25.68,0,0,1,7.21-2.21l22.85-3.93,1.13,6.57-22.92,3.94a23,23,0,0,0-5.1,1.39,8.17,8.17,0,0,0-3,2.05,5.29,5.29,0,0,0-1.32,2.74,10.06,10.06,0,0,0,.07,3.4,14.12,14.12,0,0,0,1.19,3.86,10.17,10.17,0,0,0,2,2.77,8.36,8.36,0,0,0,2.12,1.56,11.36,11.36,0,0,0,2.52.94l27.57-4.74,1.13,6.61-38.44,6.6-1-6Z"/>
    <path d="M950.19,513.37a10.37,10.37,0,0,0,1.55,3.08,8.19,8.19,0,0,0,2.36,2.19,6.06,6.06,0,0,0,3,.91l-.13,6.31A10.34,10.34,0,0,1,952,524.4a13.87,13.87,0,0,1-4-3.6,17.43,17.43,0,0,1-2.77-5.1,16.89,16.89,0,0,1-.93-6A17.77,17.77,0,0,1,946,502a15.79,15.79,0,0,1,4.41-5.43,17.93,17.93,0,0,1,6.25-3.22,24,24,0,0,1,7.43-1l1.51,0a24.1,24.1,0,0,1,7.37,1.27,18.31,18.31,0,0,1,6.16,3.48,15.9,15.9,0,0,1,4.14,5.6,19.42,19.42,0,0,1,.19,14.12,16.11,16.11,0,0,1-3.08,5,13.78,13.78,0,0,1-4.57,3.18,13.17,13.17,0,0,1-5.58,1.08l.14-6.31a8.19,8.19,0,0,0,3.35-.71,9.14,9.14,0,0,0,2.8-1.94,9.3,9.3,0,0,0,1.93-3,11.2,11.2,0,0,0-.37-9,10.25,10.25,0,0,0-3.15-3.48,14.06,14.06,0,0,0-4.47-1.95,22.94,22.94,0,0,0-5-.66l-1.51,0a22.82,22.82,0,0,0-5.08.45,13.63,13.63,0,0,0-4.52,1.76,9.74,9.74,0,0,0-3.33,3.3,10.24,10.24,0,0,0-1.36,5.22A11.14,11.14,0,0,0,950.19,513.37Z"/>
    <path d="M938.52,603.39A13.4,13.4,0,0,1,935,590.77a15.42,15.42,0,0,1,2.09-5.23,10.67,10.67,0,0,1,3.8-3.54,13.88,13.88,0,0,1,5.59-1.59A25.64,25.64,0,0,1,954,581l22.66,4.84-1.39,6.53-22.74-4.86a23,23,0,0,0-5.25-.61,8.18,8.18,0,0,0-3.56.79,5.34,5.34,0,0,0-2.24,2,10.25,10.25,0,0,0-1.2,3.19,14.38,14.38,0,0,0-.33,4,10.24,10.24,0,0,0,.79,3.3,8.5,8.5,0,0,0,1.39,2.23,10.75,10.75,0,0,0,2,1.81l27.35,5.84-1.4,6.56-38.14-8.15,1.27-5.92Z"/>
    <path d="M917.6,687.41a4.58,4.58,0,0,0,2.23-.78,12.36,12.36,0,0,0,2.5-2.15,32.66,32.66,0,0,0,2.89-3.75,46.45,46.45,0,0,1,3.9-5,19.45,19.45,0,0,1,4-3.42,9.85,9.85,0,0,1,4.09-1.59,8.06,8.06,0,0,1,4.33.65,9.26,9.26,0,0,1,3.66,2.76,11.41,11.41,0,0,1,2.12,4.3,15.78,15.78,0,0,1,.38,5.39,20,20,0,0,1-1.56,6,20.73,20.73,0,0,1-3.39,5.61,14.64,14.64,0,0,1-4.3,3.5,11.54,11.54,0,0,1-4.78,1.37,10.53,10.53,0,0,1-4.83-.85l2.6-6.14a5,5,0,0,0,2.52.36,7,7,0,0,0,2.68-.82,9.24,9.24,0,0,0,2.48-2,10.81,10.81,0,0,0,2-3.18,13.43,13.43,0,0,0,1-3.61,8,8,0,0,0-.13-2.93,5.18,5.18,0,0,0-1.06-2.21,4.57,4.57,0,0,0-1.78-1.35,4.72,4.72,0,0,0-2.06-.4A4.2,4.2,0,0,0,935,678a10.44,10.44,0,0,0-2.3,2.1,39.13,39.13,0,0,0-2.79,3.73,53.14,53.14,0,0,1-4.12,5.26,19.44,19.44,0,0,1-4,3.5,10.16,10.16,0,0,1-4.14,1.48,8.68,8.68,0,0,1-4.32-.71,9.7,9.7,0,0,1-3.89-2.92A11,11,0,0,1,907.3,686a16,16,0,0,1-.2-5.53,23.27,23.27,0,0,1,1.71-6.2,21.86,21.86,0,0,1,3.73-6.09,16.49,16.49,0,0,1,4.65-3.72,11.68,11.68,0,0,1,5-1.46,10.67,10.67,0,0,1,4.86.82l-2.6,6.14a6.85,6.85,0,0,0-3.61-.34,7.72,7.72,0,0,0-3,1.33,9.63,9.63,0,0,0-2.35,2.41,16.53,16.53,0,0,0-1.66,3,14.84,14.84,0,0,0-1.23,4.52,7.46,7.46,0,0,0,.4,3.54,4.68,4.68,0,0,0,1,1.55,4.21,4.21,0,0,0,1.49,1A4.59,4.59,0,0,0,917.6,687.41Z"/>
    <path d="M856.86,827.91,852,832.77,823.29,820l-2.15-1.26,1.26,2.16,13.17,28.47-4.8,4.84L814.3,815.42l3.58-3.61Z"/>
    <path d="M744.53,874.4a19.56,19.56,0,0,1,1.61,1.76,18.42,18.42,0,0,1,.79-2.85,16.32,16.32,0,0,1,3.4-5.54,15.16,15.16,0,0,1,2.75-2.36,16.25,16.25,0,0,1,5.14-2.41,12.49,12.49,0,0,1,4.88-.36,10.24,10.24,0,0,1,4.29,1.46,10.87,10.87,0,0,1,3.36,3.23,11.7,11.7,0,0,1,2.11,5.36,11.34,11.34,0,0,1-.72,5.38,17,17,0,0,1-3.32,5.14,31.29,31.29,0,0,1-5.65,4.81l-6,4.1,1.72,2.53a7.35,7.35,0,0,0,2.33,2.26,6.93,6.93,0,0,0,2.87,1,8.7,8.7,0,0,0,3.25-.38,12.78,12.78,0,0,0,3.48-1.72,11.56,11.56,0,0,0,2.65-2.41,8.8,8.8,0,0,0,1.44-2.6,6,6,0,0,0,.28-2.57,5,5,0,0,0-.84-2.28l5.54-3.78a9.41,9.41,0,0,1,1.45,4.08,12,12,0,0,1-.46,4.8,15.79,15.79,0,0,1-2.52,4.9,19.55,19.55,0,0,1-4.81,4.5,22.28,22.28,0,0,1-5.55,2.8,14.2,14.2,0,0,1-5.45.77,11.88,11.88,0,0,1-5-1.56,13,13,0,0,1-4.21-4.07l-10.21-15a25.65,25.65,0,0,0-2.62-3.21,18.08,18.08,0,0,0-3-2.57l-.32-.48,5.75-3.92A7.17,7.17,0,0,1,744.53,874.4Zm8.29-1.18a14.08,14.08,0,0,0-1.81,2.85,11.66,11.66,0,0,0-.9,2.9,9.69,9.69,0,0,0-.06,2.73l4.45,6.52,5.12-3.49a26.92,26.92,0,0,0,4.65-3.89,10,10,0,0,0,2.36-3.81,5.74,5.74,0,0,0,.2-2.62,6.23,6.23,0,0,0-1.06-2.55,7,7,0,0,0-1.91-1.93,5.35,5.35,0,0,0-2.38-.91,6.75,6.75,0,0,0-2.82.22,10.68,10.68,0,0,0-3.11,1.51A12.53,12.53,0,0,0,752.82,873.22Z"/>
    <path d="M694.34,961.39l-19.78-45.48L662.89,921l-2.3-5.29,29.95-13,2.3,5.29-12.16,5.29,17.46,40.16,12.17-5.29,2.31,5.32Z"/>
    <path d="M602.71,934.08a17.13,17.13,0,0,1,6.61,2.56,17.77,17.77,0,0,1,5,5,20.28,20.28,0,0,1,3,7.05l.33,1.48a22.5,22.5,0,0,1,.36,8.58,19.4,19.4,0,0,1-2.57,7,17.38,17.38,0,0,1-4.69,5.07,16.28,16.28,0,0,1-6.09,2.76,17.45,17.45,0,0,1-7.51.18,14.63,14.63,0,0,1-6-2.79,17.31,17.31,0,0,1-4.37-5.27,26.93,26.93,0,0,1-2.65-7.16l-.65-2.93,27.2-6-.05-.24a17.31,17.31,0,0,0-2.2-4.65,12.48,12.48,0,0,0-3.2-3.2,11.45,11.45,0,0,0-4.33-1.88,11.94,11.94,0,0,0-5,.09,13.51,13.51,0,0,0-5.88,2.78,13.7,13.7,0,0,0-3.68,4.74L581.65,945a17.26,17.26,0,0,1,4.54-6.38,18.5,18.5,0,0,1,8.85-4.31A19.59,19.59,0,0,1,602.71,934.08ZM607,966.74a9.88,9.88,0,0,0,2.7-2.8,12.34,12.34,0,0,0,1.61-4,16.52,16.52,0,0,0,.32-5l-20.48,4.55.07.32a12.59,12.59,0,0,0,1.51,3.64,11.28,11.28,0,0,0,2.65,3.08,9.14,9.14,0,0,0,3.54,1.72,9.56,9.56,0,0,0,4.51,0A10,10,0,0,0,607,966.74Z"/>
    <path d="M513.71,984.13l-14.84.4-.14-5.15,14.84-.41L513,957.79a10.46,10.46,0,0,0-.68-3.74,5.8,5.8,0,0,0-1.65-2.3,5.62,5.62,0,0,0-2.36-1.19,10.6,10.6,0,0,0-2.8-.29,22.13,22.13,0,0,0-2.23.19c-.77.11-1.52.23-2.26.37s-1.39.28-2,.43l-1.55.39L496.36,947a8.78,8.78,0,0,1,2-.94,20.89,20.89,0,0,1,2.58-.71c.93-.21,1.92-.38,3-.51s2.08-.2,3.11-.23a15.43,15.43,0,0,1,4.87.61,9.85,9.85,0,0,1,4,2.25,10.88,10.88,0,0,1,2.73,4.05,17.5,17.5,0,0,1,1.12,6.12l.58,21.19,10.24-.28.14,5.15-10.23.28.25,9.44-6.7.19Z"/>
    <path d="M337.09,916.52a23.08,23.08,0,0,1-.49,2.33,18.45,18.45,0,0,1,2.77-1,16.33,16.33,0,0,1,3.1-.55,17.57,17.57,0,0,1,3.39.09,15.74,15.74,0,0,1,3.52.87,16.4,16.4,0,0,1,4.95,2.78,12.74,12.74,0,0,1,3.13,3.76,10.23,10.23,0,0,1,1.3,4.33,10.85,10.85,0,0,1-.67,4.61,11.84,11.84,0,0,1-3.14,4.84,11.21,11.21,0,0,1-4.79,2.54,17,17,0,0,1-6.12.29,31.85,31.85,0,0,1-7.19-1.79L330,937.1,329,940a7.48,7.48,0,0,0-.49,3.2,6.93,6.93,0,0,0,.9,2.9,8.6,8.6,0,0,0,2.2,2.43,12.73,12.73,0,0,0,3.42,1.83,11.91,11.91,0,0,0,3.5.75,8.83,8.83,0,0,0,2.95-.34,5.94,5.94,0,0,0,2.25-1.27,5,5,0,0,0,1.37-2l6.3,2.31a9.36,9.36,0,0,1-2.48,3.55,11.72,11.72,0,0,1-4.17,2.42,15.84,15.84,0,0,1-5.46.8,19.53,19.53,0,0,1-6.45-1.3,22.43,22.43,0,0,1-5.51-2.88,14.33,14.33,0,0,1-3.8-4,11.92,11.92,0,0,1-1.63-5,13,13,0,0,1,.86-5.79l6.25-17a25.41,25.41,0,0,0,1.09-4,19,19,0,0,0,.36-3.92l.2-.54,6.53,2.4A7.59,7.59,0,0,1,337.09,916.52Zm5.78,6.06a14.34,14.34,0,0,0-3.37.18,11.61,11.61,0,0,0-2.88,1,9.15,9.15,0,0,0-2.26,1.53l-2.72,7.41,5.82,2.14a26.83,26.83,0,0,0,5.87,1.52,10,10,0,0,0,4.47-.3,5.6,5.6,0,0,0,2.25-1.36,6.43,6.43,0,0,0,1.46-2.34,7.31,7.31,0,0,0,.46-2.68,5.4,5.4,0,0,0-.65-2.46A6.79,6.79,0,0,0,349.5,925a10.77,10.77,0,0,0-3-1.65A12.46,12.46,0,0,0,342.87,922.58Z"/>
    <path d="M269.41,913.47a18.92,18.92,0,0,1-6,3.76,14.34,14.34,0,0,1-6.32,1,14.08,14.08,0,0,1-6.29-2.06,14.87,14.87,0,0,1-4.63-4.16,12.75,12.75,0,0,1-2.12-5.25l-10.43,17.33L228,920.65l28.55-47.44,5.25,3.16L259.89,880a12.74,12.74,0,0,1,5.84-.69,15.14,15.14,0,0,1,6,2.2,13.46,13.46,0,0,1,4.7,4.6,14.51,14.51,0,0,1,2,6.1,20,20,0,0,1-.56,7,26.38,26.38,0,0,1-3.06,7.26l-.4.65A27.61,27.61,0,0,1,269.41,913.47Zm2-15.34a13.88,13.88,0,0,0,.68-4.84,9.26,9.26,0,0,0-1.19-4.32,9.42,9.42,0,0,0-3.49-3.43,9.56,9.56,0,0,0-5.54-1.56,10.69,10.69,0,0,0-5.09,1.69l-9.33,15.5a11.35,11.35,0,0,0,1,5.15,9.31,9.31,0,0,0,3.91,4.14,9.07,9.07,0,0,0,9.11.52,14.28,14.28,0,0,0,4-2.92,23.07,23.07,0,0,0,3.32-4.33l.39-.65A23.29,23.29,0,0,0,271.43,898.13Z"/>
    <path d="M148.1,774a17.18,17.18,0,0,1,.41,7.07,18.06,18.06,0,0,1-2.48,6.66,20.41,20.41,0,0,1-5.19,5.63l-1.21.91a22.38,22.38,0,0,1-7.66,3.88,19.49,19.49,0,0,1-7.48.59,17.53,17.53,0,0,1-6.56-2.17,16.55,16.55,0,0,1-5-4.4,17.39,17.39,0,0,1-3.27-6.77,14.55,14.55,0,0,1,.05-6.6,17.47,17.47,0,0,1,3-6.16,26.91,26.91,0,0,1,5.43-5.38l2.39-1.8,16.78,22.25.2-.16a17,17,0,0,0,3.31-3.92,12.35,12.35,0,0,0,1.59-4.24,11.39,11.39,0,0,0-.08-4.72,11.84,11.84,0,0,0-2.17-4.55,13.65,13.65,0,0,0-5-4.2,13.9,13.9,0,0,0-5.83-1.39l.08-5.16a17.39,17.39,0,0,1,7.69,1.49,18.59,18.59,0,0,1,7.59,6.27A19.79,19.79,0,0,1,148.1,774Zm-27.93,17.48a10,10,0,0,0,3.66,1.29,12.41,12.41,0,0,0,4.27-.17,16.35,16.35,0,0,0,4.65-1.77l-12.63-16.75-.26.2a12.27,12.27,0,0,0-2.68,2.88,11,11,0,0,0-1.71,3.68,9.31,9.31,0,0,0-.11,3.94,9.84,9.84,0,0,0,1.91,4.09A10.13,10.13,0,0,0,120.17,791.47Z"/>
    <path d="M60.85,704.28l-3.46-7,23.72,4.5L92.2,679.66l3.41,6.92-8.55,16.23,18.08,3.1,3.45,7L84.3,708.23,73.43,729.79,70,722.87l8.4-15.64Z"/>
    <path d="M37.09,643.15l-1.61-5.88,4-1.43a12.63,12.63,0,0,1-2.21-1.19,11.41,11.41,0,0,1-1.88-1.58,12.78,12.78,0,0,1-2.15-2.9,16.6,16.6,0,0,1-1.49-3.73,14.35,14.35,0,0,1-.33-6.78,13.7,13.7,0,0,1,2.69-5.75,19,19,0,0,1,5.28-4.51,30.46,30.46,0,0,1,7.47-3.09l.73-.2a28.92,28.92,0,0,1,7.8-1.09,19.36,19.36,0,0,1,6.84,1.19,14,14,0,0,1,5.31,3.53,13.85,13.85,0,0,1,3.19,5.91,17.94,17.94,0,0,1,.65,4.14A14.25,14.25,0,0,1,71,623.5a13.76,13.76,0,0,1-.7,2,13.54,13.54,0,0,1-1,1.88l18.08-4.95,1.76,6.43Zm6.49-28.37a14.49,14.49,0,0,0-3.89,3.07,10,10,0,0,0-2.1,4,9.47,9.47,0,0,0,.16,5,10.4,10.4,0,0,0,1.11,2.67,8.06,8.06,0,0,0,1.63,2,8.69,8.69,0,0,0,2.17,1.53,11.85,11.85,0,0,0,2.58.94l18.11-5a13,13,0,0,0,1.58-1.89A8.09,8.09,0,0,0,66,625a10.2,10.2,0,0,0,.47-2.8A10.92,10.92,0,0,0,66,619a9.48,9.48,0,0,0-2.4-4.32,9.67,9.67,0,0,0-3.91-2.36,14.79,14.79,0,0,0-4.93-.65,22.92,22.92,0,0,0-5.41.83l-.74.2A22.7,22.7,0,0,0,43.58,614.78Z"/>
    <path d="M15.69,523.66a11.75,11.75,0,0,1,.46-3l6.57.4a34.5,34.5,0,0,0-.35,3.74,32.43,32.43,0,0,0,.08,3.66,15,15,0,0,0,.93,4.37A10.44,10.44,0,0,0,28,538.23a14.36,14.36,0,0,0,3.38,1.39l24.94-1.89.51,6.69-38.89,3L17.48,541l5.19-.68,1-.11a17.89,17.89,0,0,1-5.49-5.32,15.26,15.26,0,0,1-2.42-7.42A30.66,30.66,0,0,1,15.69,523.66Z"/>
    <path d="M7,445.93a3.28,3.28,0,0,1-1.19-1,3.35,3.35,0,0,1-.6-1.29A4.92,4.92,0,0,1,5.08,442a5.05,5.05,0,0,1,.46-1.62,3.48,3.48,0,0,1,.87-1.1,3.12,3.12,0,0,1,1.36-.71,4.65,4.65,0,0,1,1.68-.1A3.85,3.85,0,0,1,12,439.74a4.72,4.72,0,0,1-.69,6,3.84,3.84,0,0,1-2.8.67A4.58,4.58,0,0,1,7,445.93Zm12.61-5.86,33,3.8L54,431.23l5.72.66L56,464.33l-5.73-.66,1.52-13.18-27.25-3.13-1.52,13.18-5.77-.67Z"/>
    <path d="M37.81,368.33a8.78,8.78,0,0,1-2.13-3.93,9.11,9.11,0,0,1,.27-4.81A10.15,10.15,0,0,1,37.11,357a7.08,7.08,0,0,1,1.6-1.78,6.47,6.47,0,0,1,1.54-.82,8.16,8.16,0,0,1,1.83-.43,9.18,9.18,0,0,1-1.88-3.38,9.23,9.23,0,0,1-.26-2.44,10.85,10.85,0,0,1,.44-2.72A10.28,10.28,0,0,1,42,342.16a7.17,7.17,0,0,1,2.48-2.1,8.56,8.56,0,0,1,3.78-.78,16.48,16.48,0,0,1,4.86.85L81,348.84l-1.9,6.06-27.86-8.74a7.09,7.09,0,0,0-2.15-.37,4.08,4.08,0,0,0-1.73.32,3.73,3.73,0,0,0-1.25,1.1A6.21,6.21,0,0,0,45.2,349a5.9,5.9,0,0,0-.31,2.06A3.92,3.92,0,0,0,46.27,354a6.07,6.07,0,0,0,1.44.9l.32.1.36.12,27.86,8.73-1.89,6.06-27.9-8.75a8.18,8.18,0,0,0-2.14-.39,3.77,3.77,0,0,0-1.74.35,3.2,3.2,0,0,0-1.21,1,5.92,5.92,0,0,0-.82,1.73,6.82,6.82,0,0,0-.36,2.05,4.17,4.17,0,0,0,.29,1.66,4.57,4.57,0,0,0,.61,1,5.89,5.89,0,0,0,.87.86l29.61,9.28-1.89,6.06L32.46,373.11l1.79-5.7Z"/>
    <path d="M104.6,294a17,17,0,0,1-6.25,3.33,17.79,17.79,0,0,1-7.08.53A20.24,20.24,0,0,1,84,295.5l-1.33-.72a22.15,22.15,0,0,1-6.73-5.34,19.46,19.46,0,0,1-3.66-6.55A17.48,17.48,0,0,1,71.5,276a16.33,16.33,0,0,1,1.89-6.41,17.48,17.48,0,0,1,4.78-5.8,14.61,14.61,0,0,1,6-2.72,17.58,17.58,0,0,1,6.84.14,26.89,26.89,0,0,1,7.15,2.69l2.64,1.41L87.62,289.88l.23.12a17.48,17.48,0,0,0,5,1.38,12.38,12.38,0,0,0,4.51-.34,11.22,11.22,0,0,0,4.26-2.05,11.85,11.85,0,0,0,3.23-3.87,13.62,13.62,0,0,0,1.74-6.27,14,14,0,0,0-1.18-5.87l4.72-2.08a17.31,17.31,0,0,1,1.86,7.61,18.5,18.5,0,0,1-2.52,9.51A19.65,19.65,0,0,1,104.6,294ZM77.06,275.93a10,10,0,0,0,.35,3.87,12.61,12.61,0,0,0,1.94,3.81,16.83,16.83,0,0,0,3.55,3.49l9.94-18.48-.28-.15a12.65,12.65,0,0,0-3.74-1.24,11.3,11.3,0,0,0-4.06,0,9.26,9.26,0,0,0-3.62,1.55,9.65,9.65,0,0,0-2.92,3.44A9.89,9.89,0,0,0,77.06,275.93Z"/>
    <path d="M114.89,206.17l3.78-4.64,4.77,3.28a17.11,17.11,0,0,1-.55-2.89,13.9,13.9,0,0,1,0-2.81,14.5,14.5,0,0,1,1-4.05,15.15,15.15,0,0,1,2.2-3.76,16.93,16.93,0,0,1,4.2-3.77,10.64,10.64,0,0,1,4.79-1.59,12.25,12.25,0,0,1,5.34.84,21.17,21.17,0,0,1,5.81,3.51L165.41,206l-4.21,5.17-19.08-15.57a14.55,14.55,0,0,0-3.77-2.34,7.05,7.05,0,0,0-3.33-.53,6.71,6.71,0,0,0-3,1.14,12.6,12.6,0,0,0-2.78,2.6,11,11,0,0,0-1.76,3,10.35,10.35,0,0,0-.58,5.87,12.62,12.62,0,0,0,.77,2.71l21.67,17.69-4.22,5.16Z"/>
    <path d="M184.5,147.32a18.92,18.92,0,0,1-1.6-6.85,14.35,14.35,0,0,1,1.14-6.3,13.87,13.87,0,0,1,4-5.26,14.82,14.82,0,0,1,5.44-3,12.7,12.7,0,0,1,5.66-.28l-12.94-15.54,5.12-4.27,35.44,42.55-4.71,3.92-2.85-3a12.86,12.86,0,0,1-1.27,5.74,15.24,15.24,0,0,1-4.06,5A13.36,13.36,0,0,1,208,163a14.7,14.7,0,0,1-6.43-.08,20.28,20.28,0,0,1-6.43-2.83,26.27,26.27,0,0,1-5.85-5.28l-.49-.58A28.06,28.06,0,0,1,184.5,147.32Zm13.83,6.94a13.88,13.88,0,0,0,4.35,2.24,9,9,0,0,0,8.85-1.88,9.56,9.56,0,0,0,3.3-4.71,10.83,10.83,0,0,0,.08-5.37l-11.58-13.91a11.26,11.26,0,0,0-5.19-.76,10.6,10.6,0,0,0-8.15,6.29,9.46,9.46,0,0,0-.53,4.47,14.39,14.39,0,0,0,1.45,4.73,23.9,23.9,0,0,0,3,4.56l.49.58A22.77,22.77,0,0,0,198.33,154.26Z"/>
    <path d="M290.15,101.43a13.9,13.9,0,0,1-2.09,6.28,13.68,13.68,0,0,1-5.12,4.67,15.18,15.18,0,0,1-5.32,1.85,10.56,10.56,0,0,1-5.16-.54,13.8,13.8,0,0,1-4.87-3.17,26,26,0,0,1-4.46-6.08L251.9,84.16l5.84-3.23L269,101.27a23.3,23.3,0,0,0,3,4.36,8.19,8.19,0,0,0,2.93,2.17,5.44,5.44,0,0,0,3,.35,10.45,10.45,0,0,0,3.19-1.19,14.06,14.06,0,0,0,3.25-2.4,10.14,10.14,0,0,0,2-2.76,8.43,8.43,0,0,0,.78-2.51,10.51,10.51,0,0,0,.05-2.69L273.63,72.13l5.87-3.25L298.39,103l-5.29,2.93Z"/>
    <path d="M339.07,47.22a8.74,8.74,0,0,1,2-4,9.13,9.13,0,0,1,4.06-2.58,10.64,10.64,0,0,1,2.77-.54,7.08,7.08,0,0,1,2.38.27,6.28,6.28,0,0,1,1.56.77,8.21,8.21,0,0,1,1.41,1.25,8.76,8.76,0,0,1,.65-1.84,8.65,8.65,0,0,1,1-1.66,9.41,9.41,0,0,1,1.84-1.63A11.15,11.15,0,0,1,359.19,36a10.45,10.45,0,0,1,3.64-.57,7.5,7.5,0,0,1,3.15.81,8.62,8.62,0,0,1,2.83,2.63,16.39,16.39,0,0,1,2.13,4.44L380,71l-6,2-9.07-27.75a7.53,7.53,0,0,0-.95-2,4,4,0,0,0-1.27-1.21,3.58,3.58,0,0,0-1.62-.38A6.64,6.64,0,0,0,357.24,43a4.32,4.32,0,0,0-1.1,1.27,4.21,4.21,0,0,0-.45,1.53,5.84,5.84,0,0,0,.1,1.7c0,.11.07.22.11.32l.11.36,9.08,27.75-6,2L350,50.07a7.36,7.36,0,0,0-.93-2,3.7,3.7,0,0,0-1.28-1.22,3.23,3.23,0,0,0-1.55-.38,6.16,6.16,0,0,0-1.88.33,7.23,7.23,0,0,0-1.89.9,4.47,4.47,0,0,0-1.18,1.2,4.22,4.22,0,0,0-.49,1.11,4.86,4.86,0,0,0-.2,1.2l9.64,29.5-6,2L332.07,45.64l5.68-1.86Z"/>
    <path d="M524.4,24.26a6.54,6.54,0,0,1,1.6-2.15,6.63,6.63,0,0,1,2.39-1.33,8,8,0,0,1,3.07-.33,8.13,8.13,0,0,1,3,.74,6.93,6.93,0,0,1,2.24,1.63A6.44,6.44,0,0,1,538,25.16a7.9,7.9,0,0,1,.31,2.9l-.13,2.08a7.9,7.9,0,0,1-.7,2.81,6.38,6.38,0,0,1-1.58,2.13,6.67,6.67,0,0,1-2.42,1.34,9.16,9.16,0,0,1-6.08-.4,6.27,6.27,0,0,1-2.19-1.65A6.35,6.35,0,0,1,523.88,32a7.49,7.49,0,0,1-.33-2.87l.14-2.09A7.42,7.42,0,0,1,524.4,24.26Z"/>
  </g>
  <circle id="ball" cx="501.83" cy="500.15" r="398.13" fill="#ff8b20"/>
  <path id="leaf" d="M726.49,446.12H641.58A159.65,159.65,0,0,1,481.93,286.47V201.55h84.91A159.65,159.65,0,0,1,726.49,361.21Z" fill="#34944f"/>
</svg>
