<svg id="Layer_1" data-name="Layer 1" xmlns="http://www.w3.org/2000/svg" viewBox="0 0 1000 1000"><path d="M698.55,70.83a14.14,14.14,0,0,1,2.57-.68,12.74,12.74,0,0,1,4.18-.07,15.17,15.17,0,0,1,4.21,1.27,16.53,16.53,0,0,1,4.57,3.16,10.49,10.49,0,0,1,2.61,4.27,12.57,12.57,0,0,1,.4,5.36A21.39,21.39,0,0,1,715,90.58l-10.47,21.78-5.91-2.84,10.49-21.85a13.48,13.48,0,0,0,1.25-3.82,7.47,7.47,0,0,0-.17-3.26,6.77,6.77,0,0,0-1.69-2.87,10.27,10.27,0,0,0-3.2-2.19,11.31,11.31,0,0,0-3.25-1,11.2,11.2,0,0,0-3.27,0,11.39,11.39,0,0,0-2.49.64A12.34,12.34,0,0,0,694,76.33L681.9,101.47,676,98.62l23.6-49.12,5.92,2.84L696.05,72A14.58,14.58,0,0,1,698.55,70.83Z"/><path d="M764.55,116.84a18.22,18.22,0,0,1,6.48-2.9,15.82,15.82,0,0,1,6.85-.06,17,17,0,0,1,6.74,3.12,17.21,17.21,0,0,1,5,5.58,16.21,16.21,0,0,1,2,6.61,18.75,18.75,0,0,1-.93,7,23.86,23.86,0,0,1-3.63,6.92l-.47.62a23.74,23.74,0,0,1-5.55,5.47,18.61,18.61,0,0,1-6.45,2.9,16.07,16.07,0,0,1-6.87,0,17.23,17.23,0,0,1-6.73-3.14,17.43,17.43,0,0,1-5-5.57,15.52,15.52,0,0,1-2-6.57,18.29,18.29,0,0,1,.89-7,23.61,23.61,0,0,1,3.62-6.9l.47-.63A23.83,23.83,0,0,1,764.55,116.84ZM761.1,131.6a14,14,0,0,0-1.05,4.86A10,10,0,0,0,761,141a9.77,9.77,0,0,0,3.17,3.77,9.62,9.62,0,0,0,4.48,1.91,10.27,10.27,0,0,0,4.59-.44,14.41,14.41,0,0,0,4.32-2.43,21.39,21.39,0,0,0,3.76-3.94l.47-.63a20.67,20.67,0,0,0,2.65-4.72,14.78,14.78,0,0,0,1.06-4.85,10.62,10.62,0,0,0-.9-4.54,9.62,9.62,0,0,0-3.15-3.77,9.51,9.51,0,0,0-4.5-1.91,10.29,10.29,0,0,0-4.56.49,13.79,13.79,0,0,0-4.35,2.4,21.15,21.15,0,0,0-3.74,3.92l-.47.62A21.25,21.25,0,0,0,761.1,131.6Z"/><path d="M829.78,203.81A9.76,9.76,0,0,0,833,205a8,8,0,0,0,3.17,0,6.1,6.1,0,0,0,2.75-1.39l4.18,4.59a10.2,10.2,0,0,1-4.49,2.31,13.86,13.86,0,0,1-5.34.18,17.09,17.09,0,0,1-5.43-1.76,16.39,16.39,0,0,1-4.72-3.62,17.35,17.35,0,0,1-4-6.68,15.46,15.46,0,0,1-.54-6.86,17.84,17.84,0,0,1,2.26-6.54,24.18,24.18,0,0,1,4.64-5.73l1.1-1a24,24,0,0,1,6.11-4.1,18.07,18.07,0,0,1,6.76-1.7,15.58,15.58,0,0,1,6.76,1.18,19.15,19.15,0,0,1,9.72,9.93,16.14,16.14,0,0,1,1.18,5.63,13.61,13.61,0,0,1-1.1,5.37,12.84,12.84,0,0,1-3.24,4.55l-4.19-4.58a7.91,7.91,0,0,0,1.91-2.78,8.78,8.78,0,0,0,.67-3.28,9.08,9.08,0,0,0-.63-3.43,10,10,0,0,0-2-3.19,9.56,9.56,0,0,0-9-3.3,13.74,13.74,0,0,0-4.51,1.65,22.25,22.25,0,0,0-4,2.92l-1.1,1a22.82,22.82,0,0,0-3.31,3.77,13.13,13.13,0,0,0-2,4.33,9.62,9.62,0,0,0-.13,4.62,10,10,0,0,0,2.58,4.63A10.35,10.35,0,0,0,829.78,203.81Z"/><path d="M924.78,350a4.71,4.71,0,0,0,1.05-2.07,12.1,12.1,0,0,0,.32-3.23,31,31,0,0,0-.49-4.64,44.5,44.5,0,0,1-.6-6.2,19.12,19.12,0,0,1,.52-5.15,9.81,9.81,0,0,1,1.84-3.92,8,8,0,0,1,3.52-2.47,9.14,9.14,0,0,1,4.48-.52,11.18,11.18,0,0,1,4.43,1.62,15.83,15.83,0,0,1,3.94,3.58,19.63,19.63,0,0,1,3,5.35,20.67,20.67,0,0,1,1.4,6.29,14.7,14.7,0,0,1-.69,5.42,11.31,11.31,0,0,1-2.48,4.22,10.46,10.46,0,0,1-4,2.68l-2.32-6.14a5,5,0,0,0,2-1.46,7.05,7.05,0,0,0,1.35-2.4,9,9,0,0,0,.42-3.1,11,11,0,0,0-.76-3.61A13.18,13.18,0,0,0,940,331a8.1,8.1,0,0,0-2.08-2,5.24,5.24,0,0,0-2.26-.85,4.78,4.78,0,0,0-3.92,1.37,4.25,4.25,0,0,0-1,2,10.83,10.83,0,0,0-.21,3.06,43.71,43.71,0,0,0,.55,4.55,50,50,0,0,1,.64,6.55,18.81,18.81,0,0,1-.5,5.24,10,10,0,0,1-2,3.87,8.51,8.51,0,0,1-3.56,2.42,9.46,9.46,0,0,1-4.76.57,10.83,10.83,0,0,1-4.48-1.74,15.51,15.51,0,0,1-3.91-3.79,23,23,0,0,1-3-5.59,21.45,21.45,0,0,1-1.49-6.87,16.37,16.37,0,0,1,.79-5.8,11.54,11.54,0,0,1,2.57-4.44,10.64,10.64,0,0,1,4-2.72l2.33,6.14a6.86,6.86,0,0,0-2.81,2.22,7.36,7.36,0,0,0-1.25,3,9.66,9.66,0,0,0,0,3.31,16.63,16.63,0,0,0,.86,3.28,15,15,0,0,0,2.21,4.06,7.37,7.37,0,0,0,2.69,2.25,4.84,4.84,0,0,0,1.75.43,4.21,4.21,0,0,0,1.75-.28A4.75,4.75,0,0,0,924.78,350Z"/><path d="M938.62,434.1a13.68,13.68,0,0,1-5.16-4,13.42,13.42,0,0,1-2.68-6.27,14.94,14.94,0,0,1,0-5.54,10.38,10.38,0,0,1,2.17-4.62,13.55,13.55,0,0,1,4.53-3.5,25.33,25.33,0,0,1,7.1-2.18l22.48-3.86,1.12,6.47-22.56,3.88a22.32,22.32,0,0,0-5,1.36,8.15,8.15,0,0,0-3,2,5.38,5.38,0,0,0-1.3,2.69,10.35,10.35,0,0,0,.07,3.36,13.72,13.72,0,0,0,1.18,3.79,9.68,9.68,0,0,0,1.93,2.73,8,8,0,0,0,2.08,1.53,10.56,10.56,0,0,0,2.48.93l27.14-4.67,1.11,6.51-37.83,6.5-1-5.87Z"/><path d="M943.13,513.16a10.07,10.07,0,0,0,1.54,3,7.91,7.91,0,0,0,2.31,2.16,6.11,6.11,0,0,0,2.95.9l-.13,6.21A10.25,10.25,0,0,1,945,524a13.87,13.87,0,0,1-4-3.55,17.23,17.23,0,0,1-2.72-5,16.43,16.43,0,0,1-.92-5.88A17.4,17.4,0,0,1,939,502a15.37,15.37,0,0,1,4.33-5.34,17.81,17.81,0,0,1,6.15-3.18,23.93,23.93,0,0,1,7.32-.94l1.49,0a24,24,0,0,1,7.25,1.25,17.91,17.91,0,0,1,6.06,3.43,15.65,15.65,0,0,1,4.08,5.51,19.11,19.11,0,0,1,.19,13.9,15.91,15.91,0,0,1-3,4.89,13.81,13.81,0,0,1-4.5,3.13,12.9,12.9,0,0,1-5.49,1.06l.13-6.21a8,8,0,0,0,3.29-.69,9.1,9.1,0,0,0,2.76-1.91A9.29,9.29,0,0,0,971,514a10.2,10.2,0,0,0,.75-3.69,9.92,9.92,0,0,0-1.12-5.15,10,10,0,0,0-3.11-3.42,13.58,13.58,0,0,0-4.39-1.92,22.29,22.29,0,0,0-4.92-.65l-1.49,0a23.32,23.32,0,0,0-5,.45,13.09,13.09,0,0,0-4.45,1.74,9.53,9.53,0,0,0-3.28,3.25,9.89,9.89,0,0,0-1.33,5.13A10.75,10.75,0,0,0,943.13,513.16Z"/><path d="M931.65,601.77a13.19,13.19,0,0,1-3.48-12.42,15,15,0,0,1,2.07-5.15,10.3,10.3,0,0,1,3.73-3.48,13.69,13.69,0,0,1,5.51-1.57,25.41,25.41,0,0,1,7.39.62l22.32,4.77L967.81,591l-22.38-4.78a22.15,22.15,0,0,0-5.17-.6,8.2,8.2,0,0,0-3.5.77,5.28,5.28,0,0,0-2.21,2,10.18,10.18,0,0,0-1.18,3.14,14.22,14.22,0,0,0-.32,4,9.69,9.69,0,0,0,.78,3.25,8,8,0,0,0,1.36,2.19,10.41,10.41,0,0,0,2,1.78l26.93,5.76-1.38,6.45-37.55-8,1.25-5.83Z"/><path d="M911.06,684.48a4.6,4.6,0,0,0,2.19-.77,12.05,12.05,0,0,0,2.46-2.12,31.58,31.58,0,0,0,2.85-3.69,46,46,0,0,1,3.84-4.9,19.15,19.15,0,0,1,3.93-3.37,9.76,9.76,0,0,1,4-1.57,8.09,8.09,0,0,1,4.26.65,9.06,9.06,0,0,1,3.61,2.71,11.29,11.29,0,0,1,2.08,4.24,15.5,15.5,0,0,1,.38,5.3,19.58,19.58,0,0,1-1.54,5.92,20.48,20.48,0,0,1-3.34,5.52,14.68,14.68,0,0,1-4.23,3.45,11.49,11.49,0,0,1-4.7,1.34,10.48,10.48,0,0,1-4.76-.83l2.56-6.05a5.15,5.15,0,0,0,2.49.36,6.85,6.85,0,0,0,2.63-.81,9.11,9.11,0,0,0,2.44-2,10.88,10.88,0,0,0,1.94-3.13,13.14,13.14,0,0,0,1-3.57,8.15,8.15,0,0,0-.13-2.88,5.16,5.16,0,0,0-1-2.18,4.71,4.71,0,0,0-3.78-1.71,4.07,4.07,0,0,0-2.05.75,10.88,10.88,0,0,0-2.26,2.07,39.09,39.09,0,0,0-2.75,3.67,52.7,52.7,0,0,1-4,5.18,19.4,19.4,0,0,1-4,3.45,10,10,0,0,1-4.08,1.45,8.45,8.45,0,0,1-4.26-.7,9.53,9.53,0,0,1-3.83-2.87,10.94,10.94,0,0,1-2.05-4.35,15.5,15.5,0,0,1-.2-5.44,22.89,22.89,0,0,1,1.69-6.11,21.5,21.5,0,0,1,3.67-6,16.21,16.21,0,0,1,4.57-3.65,11.5,11.5,0,0,1,4.92-1.44,10.63,10.63,0,0,1,4.79.8l-2.56,6a6.76,6.76,0,0,0-3.56-.33,7.58,7.58,0,0,0-3,1.3,9.53,9.53,0,0,0-2.31,2.38,16.9,16.9,0,0,0-1.64,3,15.41,15.41,0,0,0-1.21,4.46,7.47,7.47,0,0,0,.4,3.48,4.81,4.81,0,0,0,1,1.53,4.31,4.31,0,0,0,1.47,1A4.6,4.6,0,0,0,911.06,684.48Z"/><path d="M851.27,822.77l-4.76,4.79L818.22,815l-2.11-1.25,1.23,2.13,13,28-4.72,4.76-16.22-38.15,3.53-3.55Z"/><path d="M740.7,868.54a17.73,17.73,0,0,1,1.59,1.73,18.16,18.16,0,0,1,.77-2.81,15.91,15.91,0,0,1,1.34-2.8,16.1,16.1,0,0,1,2-2.65,14.7,14.7,0,0,1,2.71-2.32,16.21,16.21,0,0,1,5.06-2.38A12.45,12.45,0,0,1,759,857a10,10,0,0,1,4.22,1.43,10.77,10.77,0,0,1,3.31,3.18,11.6,11.6,0,0,1,2.07,5.29,11.12,11.12,0,0,1-.7,5.29,17,17,0,0,1-3.27,5.06,31,31,0,0,1-5.56,4.73l-5.92,4,1.7,2.49a7.28,7.28,0,0,0,2.28,2.22,6.79,6.79,0,0,0,2.84.95,8.47,8.47,0,0,0,3.2-.38,12.48,12.48,0,0,0,3.42-1.69,11.42,11.42,0,0,0,2.61-2.38,8.55,8.55,0,0,0,1.41-2.55,6,6,0,0,0,.28-2.53,5.07,5.07,0,0,0-.83-2.25l5.45-3.71a9.09,9.09,0,0,1,1.43,4,11.81,11.81,0,0,1-.45,4.73,15.53,15.53,0,0,1-2.49,4.82,18.92,18.92,0,0,1-4.73,4.43,21.92,21.92,0,0,1-5.46,2.76,14.35,14.35,0,0,1-5.37.76,11.67,11.67,0,0,1-4.91-1.55,12.77,12.77,0,0,1-4.15-4l-10.05-14.75a24.8,24.8,0,0,0-2.58-3.15,17.6,17.6,0,0,0-2.93-2.54l-.32-.47,5.66-3.85A7.18,7.18,0,0,1,740.7,868.54Zm8.16-1.17a13.93,13.93,0,0,0-1.78,2.81,11.11,11.11,0,0,0-.89,2.86,9.34,9.34,0,0,0-.06,2.68l4.38,6.42,5-3.44a26.05,26.05,0,0,0,4.58-3.83,9.77,9.77,0,0,0,2.32-3.75,5.56,5.56,0,0,0,.2-2.58,6.25,6.25,0,0,0-1-2.51,7.05,7.05,0,0,0-1.87-1.9,5.44,5.44,0,0,0-2.35-.89,6.69,6.69,0,0,0-2.77.22,10.62,10.62,0,0,0-3.07,1.48A12.58,12.58,0,0,0,748.86,867.37Z"/><path d="M691.25,954.18l-19.46-44.77-11.49,5L658,909.19l29.48-12.81,2.26,5.21-12,5.2L695,946.33l12-5.21,2.27,5.24Z"/><path d="M601.06,927.29a16.79,16.79,0,0,1,6.5,2.52,17.73,17.73,0,0,1,5,4.93,20,20,0,0,1,2.93,7l.32,1.45a21.81,21.81,0,0,1,.35,8.45,19,19,0,0,1-2.52,6.94,17.23,17.23,0,0,1-4.62,5,16.12,16.12,0,0,1-6,2.71,17.26,17.26,0,0,1-7.4.18,14.45,14.45,0,0,1-5.9-2.75,17.14,17.14,0,0,1-4.3-5.18,26.64,26.64,0,0,1-2.6-7.06l-.64-2.87,26.78-6-.06-.24a17.16,17.16,0,0,0-2.16-4.57,12.1,12.1,0,0,0-3.15-3.15,11.14,11.14,0,0,0-4.27-1.85,11.72,11.72,0,0,0-5,.08,13.22,13.22,0,0,0-9.4,7.4l-4.6-2.18a17.11,17.11,0,0,1,4.48-6.28,18.34,18.34,0,0,1,8.7-4.25A19.61,19.61,0,0,1,601.06,927.29Zm4.26,32.15a10.1,10.1,0,0,0,2.66-2.75,12.39,12.39,0,0,0,1.59-3.9,16.37,16.37,0,0,0,.31-4.88l-20.16,4.48.07.31a12.31,12.31,0,0,0,1.49,3.58,10.9,10.9,0,0,0,2.6,3,9.13,9.13,0,0,0,3.48,1.7,9.57,9.57,0,0,0,4.45,0A9.88,9.88,0,0,0,605.32,959.44Z"/><path d="M513.5,976.54l-14.62.4-.13-5.07,14.61-.4-.57-20.85a10.38,10.38,0,0,0-.67-3.68,5.8,5.8,0,0,0-1.62-2.26,5.66,5.66,0,0,0-2.33-1.18,10.78,10.78,0,0,0-2.76-.28,18.88,18.88,0,0,0-2.19.19c-.76.1-1.5.22-2.23.36s-1.37.28-2,.43-1.13.27-1.54.38l-1-4.62a8.74,8.74,0,0,1,2-.93,20.11,20.11,0,0,1,2.53-.69c.92-.21,1.89-.38,2.92-.51s2.05-.19,3.06-.22a14.93,14.93,0,0,1,4.79.6,9.77,9.77,0,0,1,3.92,2.21,10.78,10.78,0,0,1,2.68,4,17.2,17.2,0,0,1,1.1,6l.58,20.86L530,971l.14,5.08-10.07.27.25,9.3-6.6.18Z"/><path d="M339.64,910a19.91,19.91,0,0,1-.48,2.29,19.51,19.51,0,0,1,2.73-1,16.46,16.46,0,0,1,3.05-.54,16.94,16.94,0,0,1,3.33.09,15.3,15.3,0,0,1,3.47.86,16.2,16.2,0,0,1,4.87,2.73,12.46,12.46,0,0,1,3.08,3.7A10.1,10.1,0,0,1,361,922.4a10.69,10.69,0,0,1-.67,4.54,11.52,11.52,0,0,1-3.09,4.76,11.19,11.19,0,0,1-4.71,2.51,17,17,0,0,1-6,.28,31.27,31.27,0,0,1-7.09-1.77l-6.72-2.47-1,2.83a7.4,7.4,0,0,0-.48,3.15,6.87,6.87,0,0,0,.88,2.86,8.47,8.47,0,0,0,2.17,2.38,12.44,12.44,0,0,0,3.36,1.8A11.22,11.22,0,0,0,341,944a8.8,8.8,0,0,0,2.9-.33,5.78,5.78,0,0,0,2.22-1.25,4.94,4.94,0,0,0,1.35-2l6.19,2.28a9.21,9.21,0,0,1-2.43,3.49,11.7,11.7,0,0,1-4.11,2.38,15.63,15.63,0,0,1-5.37.79,19.13,19.13,0,0,1-6.35-1.28,21.39,21.39,0,0,1-5.42-2.84,14,14,0,0,1-3.74-3.92,11.73,11.73,0,0,1-1.61-4.9,12.94,12.94,0,0,1,.85-5.7L331.65,914a24.78,24.78,0,0,0,1.07-3.94,18.27,18.27,0,0,0,.36-3.85l.19-.54L339.7,908A7.44,7.44,0,0,1,339.64,910Zm5.69,6a13.83,13.83,0,0,0-3.31.18,11.49,11.49,0,0,0-2.85.94,9.05,9.05,0,0,0-2.21,1.51l-2.68,7.3L340,928a27,27,0,0,0,5.78,1.5,9.85,9.85,0,0,0,4.4-.29,5.62,5.62,0,0,0,2.21-1.35,6.09,6.09,0,0,0,1.43-2.31,7,7,0,0,0,.46-2.62,5.36,5.36,0,0,0-.64-2.43,6.58,6.58,0,0,0-1.79-2.13,10.32,10.32,0,0,0-3-1.63A12.45,12.45,0,0,0,345.33,916Z"/><path d="M273,907a18.78,18.78,0,0,1-5.85,3.7,14.2,14.2,0,0,1-6.22,1,13.65,13.65,0,0,1-6.2-2,14.59,14.59,0,0,1-4.55-4.09,12.5,12.5,0,0,1-2.09-5.17l-10.27,17.06-5.62-3.39,28.11-46.69,5.17,3.11-1.85,3.61a12.49,12.49,0,0,1,5.75-.68,15,15,0,0,1,6,2.17A13.18,13.18,0,0,1,280,880.1a14.41,14.41,0,0,1,2,6,19.89,19.89,0,0,1-.55,6.9,26,26,0,0,1-3,7.15l-.38.63A27.32,27.32,0,0,1,273,907Zm2-15.1a13.72,13.72,0,0,0,.67-4.77,8.87,8.87,0,0,0-4.6-7.62,9.47,9.47,0,0,0-5.46-1.54,10.57,10.57,0,0,0-5,1.66l-9.19,15.26a11.25,11.25,0,0,0,1,5.07,9.2,9.2,0,0,0,3.85,4.08,9.36,9.36,0,0,0,4.64,1.47,9.55,9.55,0,0,0,4.33-1,14.08,14.08,0,0,0,3.92-2.88,22.67,22.67,0,0,0,3.27-4.26l.39-.64A23,23,0,0,0,275,891.9Z"/><path d="M153.61,769.7a16.82,16.82,0,0,1,.4,7,17.63,17.63,0,0,1-2.43,6.55,20.09,20.09,0,0,1-5.11,5.54l-1.19.9a22,22,0,0,1-7.54,3.82,19.12,19.12,0,0,1-7.37.58,17.18,17.18,0,0,1-6.45-2.13,16.32,16.32,0,0,1-5-4.33,17.19,17.19,0,0,1-3.22-6.66,14.44,14.44,0,0,1,.05-6.51,17.36,17.36,0,0,1,2.94-6.06,26.53,26.53,0,0,1,5.34-5.29l2.35-1.78,16.52,21.9.2-.15a16.7,16.7,0,0,0,3.26-3.86A12,12,0,0,0,148,775a11.18,11.18,0,0,0-.08-4.64,11.68,11.68,0,0,0-2.13-4.48,13.26,13.26,0,0,0-4.9-4.13,13.55,13.55,0,0,0-5.73-1.37l.07-5.08a17,17,0,0,1,7.58,1.47,18.21,18.21,0,0,1,7.47,6.16A19.54,19.54,0,0,1,153.61,769.7Zm-27.49,17.2a9.82,9.82,0,0,0,3.6,1.28,12.32,12.32,0,0,0,4.21-.17,16.46,16.46,0,0,0,4.58-1.74l-12.44-16.49-.25.2a11.86,11.86,0,0,0-2.64,2.83,11,11,0,0,0-1.69,3.63,9.14,9.14,0,0,0-.1,3.87,9.5,9.5,0,0,0,1.88,4A9.77,9.77,0,0,0,126.12,786.9Z"/><path d="M67.73,701.08l-3.4-6.9,23.35,4.43,10.91-21.76,3.36,6.81-8.42,16,17.8,3.05,3.39,6.88L90.81,705l-10.7,21.22-3.36-6.81L85,704Z"/><path d="M44.34,640.91l-1.58-5.78,4-1.42a11.9,11.9,0,0,1-2.17-1.17A11,11,0,0,1,42.69,631a12.73,12.73,0,0,1-2.12-2.86,16.46,16.46,0,0,1-1.47-3.66,14.32,14.32,0,0,1-.32-6.68,13.58,13.58,0,0,1,2.65-5.66,18.57,18.57,0,0,1,5.2-4.44,29.49,29.49,0,0,1,7.35-3l.72-.2a28.4,28.4,0,0,1,7.67-1.07,19,19,0,0,1,6.74,1.17A13.7,13.7,0,0,1,74.33,608a13.43,13.43,0,0,1,3.14,5.82,17.26,17.26,0,0,1,.64,4.07,12.3,12.3,0,0,1-1,5.64,12.14,12.14,0,0,1-1,1.85l17.8-4.87,1.73,6.33ZM50.73,613a14.36,14.36,0,0,0-3.83,3,9.91,9.91,0,0,0-2.07,4,9.53,9.53,0,0,0,.16,4.89,10.52,10.52,0,0,0,1.09,2.62,7.87,7.87,0,0,0,1.61,2A8.21,8.21,0,0,0,49.83,631a11.94,11.94,0,0,0,2.53.93L70.19,627a12,12,0,0,0,1.55-1.86,7.6,7.6,0,0,0,1-2.12,9.84,9.84,0,0,0,.46-2.75,10.53,10.53,0,0,0-.41-3.11,9.27,9.27,0,0,0-2.36-4.25,9.75,9.75,0,0,0-3.85-2.33,14.57,14.57,0,0,0-4.85-.64,23.3,23.3,0,0,0-5.33.82l-.72.2A22.07,22.07,0,0,0,50.73,613Z"/><path d="M23.28,523.29a11,11,0,0,1,.45-3l6.47.4a35.92,35.92,0,0,0-.35,3.67,34,34,0,0,0,.08,3.61,15.29,15.29,0,0,0,.91,4.3,10.29,10.29,0,0,0,2,3.27,10.16,10.16,0,0,0,2.6,2.1A14.74,14.74,0,0,0,38.74,539l24.55-1.87.5,6.58-38.28,2.91L25,540.4l5.11-.67,1-.11a17.64,17.64,0,0,1-5.4-5.23,15.09,15.09,0,0,1-2.38-7.31A28,28,0,0,1,23.28,523.29Z"/><path d="M14.67,446.78a3.27,3.27,0,0,1-1.17-1,3.34,3.34,0,0,1-.59-1.26,4.82,4.82,0,0,1-.07-1.67,4.63,4.63,0,0,1,.45-1.59,3.56,3.56,0,0,1,2.19-1.79,4.49,4.49,0,0,1,1.65-.09,3.73,3.73,0,0,1,2.53,1.29,4.64,4.64,0,0,1-.67,5.87,3.78,3.78,0,0,1-2.76.66A4.76,4.76,0,0,1,14.67,446.78ZM27.09,441l32.5,3.74L61,432.31l5.64.65L63,464.89l-5.64-.65,1.49-13L32,448.18l-1.49,13-5.67-.66Z"/><path d="M45.06,370.36A8.63,8.63,0,0,1,43,366.48a9,9,0,0,1,.26-4.73,10.35,10.35,0,0,1,1.14-2.53A7.06,7.06,0,0,1,46,357.47a6.23,6.23,0,0,1,1.51-.81,7.59,7.59,0,0,1,1.81-.42,9.25,9.25,0,0,1-1.11-1.57,10,10,0,0,1-.75-1.76,9.82,9.82,0,0,1-.25-2.4,11,11,0,0,1,.43-2.68,10.48,10.48,0,0,1,1.63-3.24,7.15,7.15,0,0,1,2.45-2.06,8.49,8.49,0,0,1,3.72-.77,16.19,16.19,0,0,1,4.78.83l27.36,8.58-1.87,6-27.43-8.6a7.51,7.51,0,0,0-2.11-.37,4.09,4.09,0,0,0-1.7.33,3.43,3.43,0,0,0-1.24,1.08,6.14,6.14,0,0,0-.85,1.76,5.9,5.9,0,0,0-.3,2,4.38,4.38,0,0,0,.39,1.61,4.2,4.2,0,0,0,1,1.24,6.17,6.17,0,0,0,1.41.89l.33.1.35.11,27.43,8.6-1.87,6-27.46-8.61a8,8,0,0,0-2.11-.39,3.76,3.76,0,0,0-1.71.34,3.3,3.3,0,0,0-1.19,1,5.84,5.84,0,0,0-.81,1.7,6.7,6.7,0,0,0-.36,2,4.23,4.23,0,0,0,.29,1.63,4.62,4.62,0,0,0,.6,1,5.26,5.26,0,0,0,.86.84l29.15,9.14-1.87,6L39.79,375.06l1.77-5.62Z"/><path d="M110.8,297.23a16.73,16.73,0,0,1-6.16,3.28,17.62,17.62,0,0,1-7,.52,20.08,20.08,0,0,1-7.17-2.32L89.19,298a22,22,0,0,1-6.62-5.26,19,19,0,0,1-3.6-6.45,17.09,17.09,0,0,1-.76-6.75,16.06,16.06,0,0,1,1.87-6.31,17.14,17.14,0,0,1,4.7-5.71,14.25,14.25,0,0,1,5.93-2.67,17,17,0,0,1,6.73.14,26.23,26.23,0,0,1,7,2.64l2.59,1.39-13,24.16.22.11a17,17,0,0,0,4.88,1.36,12.24,12.24,0,0,0,4.44-.33,11.15,11.15,0,0,0,4.19-2,11.7,11.7,0,0,0,3.18-3.81,13.34,13.34,0,0,0,1.71-6.17,13.58,13.58,0,0,0-1.16-5.78l4.65-2.05A17.12,17.12,0,0,1,118,282a18.22,18.22,0,0,1-2.48,9.36A19.46,19.46,0,0,1,110.8,297.23ZM83.68,279.44a10.09,10.09,0,0,0,.35,3.81A12.11,12.11,0,0,0,85.94,287a16.5,16.5,0,0,0,3.49,3.43l9.79-18.18-.28-.15a12.25,12.25,0,0,0-3.68-1.22,11.2,11.2,0,0,0-4,0,8.89,8.89,0,0,0-3.56,1.53,9.44,9.44,0,0,0-2.87,3.39A9.85,9.85,0,0,0,83.68,279.44Z"/><path d="M120.92,210.77l3.73-4.56,4.68,3.23a18,18,0,0,1-.54-2.84,14.34,14.34,0,0,1,0-2.78,14,14,0,0,1,1-4,15,15,0,0,1,2.17-3.7,16.76,16.76,0,0,1,4.13-3.71,10.46,10.46,0,0,1,4.72-1.57,12,12,0,0,1,5.25.83,20.64,20.64,0,0,1,5.72,3.46l18.88,15.41-4.15,5.09-18.77-15.33A14.51,14.51,0,0,0,144,198a7,7,0,0,0-3.28-.52,6.64,6.64,0,0,0-3,1.12,12.37,12.37,0,0,0-2.73,2.55,10.85,10.85,0,0,0-1.73,2.94,11.46,11.46,0,0,0-.74,3.11,12.69,12.69,0,0,0,.16,2.67,12.18,12.18,0,0,0,.76,2.66L154.81,230l-4.15,5.08Z"/><path d="M189.46,152.83a18.74,18.74,0,0,1-1.58-6.74,14.33,14.33,0,0,1,1.12-6.2,13.76,13.76,0,0,1,3.95-5.18,14.51,14.51,0,0,1,5.36-3,12.6,12.6,0,0,1,5.57-.28l-12.74-15.29,5.05-4.2,34.87,41.88-4.63,3.86-2.81-2.93a12.59,12.59,0,0,1-1.24,5.65,15.06,15.06,0,0,1-4,4.91,13.37,13.37,0,0,1-5.8,2.88,14.4,14.4,0,0,1-6.33-.09,19.74,19.74,0,0,1-6.33-2.78,25.94,25.94,0,0,1-5.76-5.2l-.48-.57A27.28,27.28,0,0,1,189.46,152.83Zm13.61,6.84a13.78,13.78,0,0,0,4.29,2.2,8.87,8.87,0,0,0,8.71-1.85,9.38,9.38,0,0,0,3.24-4.64,10.62,10.62,0,0,0,.08-5.29L208,136.41a11.06,11.06,0,0,0-5.11-.76,9.28,9.28,0,0,0-5.11,2.29,9.37,9.37,0,0,0-2.91,3.91,9.28,9.28,0,0,0-.52,4.4,14.23,14.23,0,0,0,1.43,4.65,23.21,23.21,0,0,0,3,4.49l.47.57A23.25,23.25,0,0,0,203.07,159.67Z"/><path d="M293.43,107.67a13.62,13.62,0,0,1-2.05,6.19,13.48,13.48,0,0,1-5,4.59,15,15,0,0,1-5.23,1.83,10.59,10.59,0,0,1-5.08-.53,13.61,13.61,0,0,1-4.8-3.13,25.53,25.53,0,0,1-4.39-6l-11-20,5.74-3.18,11.09,20a22.89,22.89,0,0,0,2.94,4.29,8,8,0,0,0,2.89,2.13,5.26,5.26,0,0,0,3,.35,10.25,10.25,0,0,0,3.14-1.18,13.77,13.77,0,0,0,3.2-2.36A10.08,10.08,0,0,0,289.7,108a8.44,8.44,0,0,0,.76-2.47,10.66,10.66,0,0,0,.06-2.65L277.18,78.83l5.77-3.2,18.6,33.59-5.22,2.89Z"/><path d="M341.59,54.32a8.62,8.62,0,0,1,1.94-4,9,9,0,0,1,4-2.54,10.6,10.6,0,0,1,2.72-.53,6.85,6.85,0,0,1,2.34.26,6.3,6.3,0,0,1,1.54.76,8,8,0,0,1,1.39,1.23,8.68,8.68,0,0,1,.64-1.81,9.28,9.28,0,0,1,1-1.64A9.33,9.33,0,0,1,359,44.5a10.81,10.81,0,0,1,2.43-1.21,10.43,10.43,0,0,1,3.59-.56,7.16,7.16,0,0,1,3.1.8,8.51,8.51,0,0,1,2.78,2.58,16,16,0,0,1,2.1,4.37l8.91,27.26-5.94,1.94L367,52.36a7.3,7.3,0,0,0-.93-1.94,4.17,4.17,0,0,0-1.25-1.2,3.61,3.61,0,0,0-1.59-.37,5.88,5.88,0,0,0-1.93.33,5.65,5.65,0,0,0-1.82.93A3.76,3.76,0,0,0,358,52.87a5.64,5.64,0,0,0,.1,1.67c0,.11.07.22.1.32s.07.22.12.35l8.93,27.32-5.94,1.94-8.94-27.35a7.61,7.61,0,0,0-.91-1.94A3.66,3.66,0,0,0,350.14,54a3.09,3.09,0,0,0-1.52-.38,5.77,5.77,0,0,0-1.86.32,7.08,7.08,0,0,0-1.85.89A4.23,4.23,0,0,0,343.74,56a4.58,4.58,0,0,0-.48,1.09,5.28,5.28,0,0,0-.19,1.19l9.49,29-5.94,2L334.7,52.76l5.59-1.83Z"/><path d="M524,31.71a6.5,6.5,0,0,1,1.59-2.12,6.66,6.66,0,0,1,2.34-1.3,8.22,8.22,0,0,1,3-.33,8.11,8.11,0,0,1,3,.73,7.12,7.12,0,0,1,2.21,1.61,6.37,6.37,0,0,1,1.27,2.3,7.87,7.87,0,0,1,.3,2.85l-.13,2a7.68,7.68,0,0,1-.69,2.77,6.08,6.08,0,0,1-1.56,2.1A6.67,6.67,0,0,1,533,43.69a8.45,8.45,0,0,1-3,.31,8.15,8.15,0,0,1-2.95-.71,6.14,6.14,0,0,1-2.15-1.62,6.33,6.33,0,0,1-1.33-2.29,7.55,7.55,0,0,1-.32-2.84l.13-2A7.64,7.64,0,0,1,524,31.71Z"/></svg>